G04 #@! TF.GenerationSoftware,KiCad,Pcbnew,(5.1.5-0)*
G04 #@! TF.CreationDate,2020-03-26T07:19:41-06:00*
G04 #@! TF.ProjectId,8ch_v3,3863685f-7633-42e6-9b69-6361645f7063,rev?*
G04 #@! TF.SameCoordinates,Original*
G04 #@! TF.FileFunction,Other,User*
%FSLAX46Y46*%
G04 Gerber Fmt 4.6, Leading zero omitted, Abs format (unit mm)*
G04 Created by KiCad (PCBNEW (5.1.5-0)) date 2020-03-26 07:19:41*
%MOMM*%
%LPD*%
G04 APERTURE LIST*
%ADD10C,0.050000*%
G04 APERTURE END LIST*
D10*
X149130000Y-117950000D02*
X149130000Y-121250000D01*
X147670000Y-117950000D02*
X149130000Y-117950000D01*
X147670000Y-121250000D02*
X147670000Y-117950000D01*
X149130000Y-121250000D02*
X147670000Y-121250000D01*
X145650000Y-109620000D02*
X145650000Y-106020000D01*
X149450000Y-109620000D02*
X145650000Y-109620000D01*
X149450000Y-106020000D02*
X149450000Y-109620000D01*
X145650000Y-106020000D02*
X149450000Y-106020000D01*
X141670000Y-109450000D02*
X141670000Y-106150000D01*
X143130000Y-109450000D02*
X141670000Y-109450000D01*
X143130000Y-106150000D02*
X143130000Y-109450000D01*
X141670000Y-106150000D02*
X143130000Y-106150000D01*
X168950000Y-124270000D02*
X172250000Y-124270000D01*
X168950000Y-125730000D02*
X168950000Y-124270000D01*
X172250000Y-125730000D02*
X168950000Y-125730000D01*
X172250000Y-124270000D02*
X172250000Y-125730000D01*
X155750000Y-118870000D02*
X159050000Y-118870000D01*
X155750000Y-120330000D02*
X155750000Y-118870000D01*
X159050000Y-120330000D02*
X155750000Y-120330000D01*
X159050000Y-118870000D02*
X159050000Y-120330000D01*
X168750000Y-114270000D02*
X172050000Y-114270000D01*
X168750000Y-115730000D02*
X168750000Y-114270000D01*
X172050000Y-115730000D02*
X168750000Y-115730000D01*
X172050000Y-114270000D02*
X172050000Y-115730000D01*
X155750000Y-109070000D02*
X159050000Y-109070000D01*
X155750000Y-110530000D02*
X155750000Y-109070000D01*
X159050000Y-110530000D02*
X155750000Y-110530000D01*
X159050000Y-109070000D02*
X159050000Y-110530000D01*
X168750000Y-104670000D02*
X172050000Y-104670000D01*
X168750000Y-106130000D02*
X168750000Y-104670000D01*
X172050000Y-106130000D02*
X168750000Y-106130000D01*
X172050000Y-104670000D02*
X172050000Y-106130000D01*
X155700000Y-99440000D02*
X159000000Y-99440000D01*
X155700000Y-100900000D02*
X155700000Y-99440000D01*
X159000000Y-100900000D02*
X155700000Y-100900000D01*
X159000000Y-99440000D02*
X159000000Y-100900000D01*
X168750000Y-94670000D02*
X172050000Y-94670000D01*
X168750000Y-96130000D02*
X168750000Y-94670000D01*
X172050000Y-96130000D02*
X168750000Y-96130000D01*
X172050000Y-94670000D02*
X172050000Y-96130000D01*
X155680000Y-89070000D02*
X158980000Y-89070000D01*
X155680000Y-90530000D02*
X155680000Y-89070000D01*
X158980000Y-90530000D02*
X155680000Y-90530000D01*
X158980000Y-89070000D02*
X158980000Y-90530000D01*
X168750000Y-84270000D02*
X172050000Y-84270000D01*
X168750000Y-85730000D02*
X168750000Y-84270000D01*
X172050000Y-85730000D02*
X168750000Y-85730000D01*
X172050000Y-84270000D02*
X172050000Y-85730000D01*
X155700000Y-78590000D02*
X159000000Y-78590000D01*
X155700000Y-80050000D02*
X155700000Y-78590000D01*
X159000000Y-80050000D02*
X155700000Y-80050000D01*
X159000000Y-78590000D02*
X159000000Y-80050000D01*
X168750000Y-73870000D02*
X172050000Y-73870000D01*
X168750000Y-75330000D02*
X168750000Y-73870000D01*
X172050000Y-75330000D02*
X168750000Y-75330000D01*
X172050000Y-73870000D02*
X172050000Y-75330000D01*
X155650000Y-68500000D02*
X158950000Y-68500000D01*
X155650000Y-69960000D02*
X155650000Y-68500000D01*
X158950000Y-69960000D02*
X155650000Y-69960000D01*
X158950000Y-68500000D02*
X158950000Y-69960000D01*
X168750000Y-64270000D02*
X172050000Y-64270000D01*
X168750000Y-65730000D02*
X168750000Y-64270000D01*
X172050000Y-65730000D02*
X168750000Y-65730000D01*
X172050000Y-64270000D02*
X172050000Y-65730000D01*
X155850000Y-58770000D02*
X159150000Y-58770000D01*
X155850000Y-60230000D02*
X155850000Y-58770000D01*
X159150000Y-60230000D02*
X155850000Y-60230000D01*
X159150000Y-58770000D02*
X159150000Y-60230000D01*
X168850000Y-54370000D02*
X172150000Y-54370000D01*
X168850000Y-55830000D02*
X168850000Y-54370000D01*
X172150000Y-55830000D02*
X168850000Y-55830000D01*
X172150000Y-54370000D02*
X172150000Y-55830000D01*
X155825000Y-49170000D02*
X159125000Y-49170000D01*
X155825000Y-50630000D02*
X155825000Y-49170000D01*
X159125000Y-50630000D02*
X155825000Y-50630000D01*
X159125000Y-49170000D02*
X159125000Y-50630000D01*
X149870000Y-109550000D02*
X149870000Y-106250000D01*
X151330000Y-109550000D02*
X149870000Y-109550000D01*
X151330000Y-106250000D02*
X151330000Y-109550000D01*
X149870000Y-106250000D02*
X151330000Y-106250000D01*
X143670000Y-109450000D02*
X143670000Y-106150000D01*
X145130000Y-109450000D02*
X143670000Y-109450000D01*
X145130000Y-106150000D02*
X145130000Y-109450000D01*
X143670000Y-106150000D02*
X145130000Y-106150000D01*
X167600000Y-116750000D02*
X162000000Y-116750000D01*
X167600000Y-120350000D02*
X162000000Y-120350000D01*
X162000000Y-120350000D02*
X162000000Y-116750000D01*
X167600000Y-120350000D02*
X167600000Y-116750000D01*
X175800000Y-122400000D02*
X172200000Y-122400000D01*
X175800000Y-118600000D02*
X175800000Y-122400000D01*
X172200000Y-118600000D02*
X175800000Y-118600000D01*
X172200000Y-122400000D02*
X172200000Y-118600000D01*
X167600000Y-106750000D02*
X162000000Y-106750000D01*
X167600000Y-110350000D02*
X162000000Y-110350000D01*
X162000000Y-110350000D02*
X162000000Y-106750000D01*
X167600000Y-110350000D02*
X167600000Y-106750000D01*
X175800000Y-112400000D02*
X172200000Y-112400000D01*
X175800000Y-108600000D02*
X175800000Y-112400000D01*
X172200000Y-108600000D02*
X175800000Y-108600000D01*
X172200000Y-112400000D02*
X172200000Y-108600000D01*
X167600000Y-97250000D02*
X162000000Y-97250000D01*
X167600000Y-100850000D02*
X162000000Y-100850000D01*
X162000000Y-100850000D02*
X162000000Y-97250000D01*
X167600000Y-100850000D02*
X167600000Y-97250000D01*
X175800000Y-102900000D02*
X172200000Y-102900000D01*
X175800000Y-99100000D02*
X175800000Y-102900000D01*
X172200000Y-99100000D02*
X175800000Y-99100000D01*
X172200000Y-102900000D02*
X172200000Y-99100000D01*
X167575000Y-86950000D02*
X161975000Y-86950000D01*
X167575000Y-90550000D02*
X161975000Y-90550000D01*
X161975000Y-90550000D02*
X161975000Y-86950000D01*
X167575000Y-90550000D02*
X167575000Y-86950000D01*
X175775000Y-92600000D02*
X172175000Y-92600000D01*
X175775000Y-88800000D02*
X175775000Y-92600000D01*
X172175000Y-88800000D02*
X175775000Y-88800000D01*
X172175000Y-92600000D02*
X172175000Y-88800000D01*
X167600000Y-76450000D02*
X162000000Y-76450000D01*
X167600000Y-80050000D02*
X162000000Y-80050000D01*
X162000000Y-80050000D02*
X162000000Y-76450000D01*
X167600000Y-80050000D02*
X167600000Y-76450000D01*
X175800000Y-82100000D02*
X172200000Y-82100000D01*
X175800000Y-78300000D02*
X175800000Y-82100000D01*
X172200000Y-78300000D02*
X175800000Y-78300000D01*
X172200000Y-82100000D02*
X172200000Y-78300000D01*
X167600000Y-66350000D02*
X162000000Y-66350000D01*
X167600000Y-69950000D02*
X162000000Y-69950000D01*
X162000000Y-69950000D02*
X162000000Y-66350000D01*
X167600000Y-69950000D02*
X167600000Y-66350000D01*
X175800000Y-72000000D02*
X172200000Y-72000000D01*
X175800000Y-68200000D02*
X175800000Y-72000000D01*
X172200000Y-68200000D02*
X175800000Y-68200000D01*
X172200000Y-72000000D02*
X172200000Y-68200000D01*
X167500000Y-56500000D02*
X161900000Y-56500000D01*
X167500000Y-60100000D02*
X161900000Y-60100000D01*
X161900000Y-60100000D02*
X161900000Y-56500000D01*
X167500000Y-60100000D02*
X167500000Y-56500000D01*
X175700000Y-62150000D02*
X172100000Y-62150000D01*
X175700000Y-58350000D02*
X175700000Y-62150000D01*
X172100000Y-58350000D02*
X175700000Y-58350000D01*
X172100000Y-62150000D02*
X172100000Y-58350000D01*
X167400000Y-46950000D02*
X161800000Y-46950000D01*
X167400000Y-50550000D02*
X161800000Y-50550000D01*
X161800000Y-50550000D02*
X161800000Y-46950000D01*
X167400000Y-50550000D02*
X167400000Y-46950000D01*
X175600000Y-52600000D02*
X172000000Y-52600000D01*
X175600000Y-48800000D02*
X175600000Y-52600000D01*
X172000000Y-48800000D02*
X175600000Y-48800000D01*
X172000000Y-52600000D02*
X172000000Y-48800000D01*
X167850000Y-123830000D02*
X164550000Y-123830000D01*
X167850000Y-122370000D02*
X167850000Y-123830000D01*
X164550000Y-122370000D02*
X167850000Y-122370000D01*
X164550000Y-123830000D02*
X164550000Y-122370000D01*
X164050000Y-123830000D02*
X160750000Y-123830000D01*
X164050000Y-122370000D02*
X164050000Y-123830000D01*
X160750000Y-122370000D02*
X164050000Y-122370000D01*
X160750000Y-123830000D02*
X160750000Y-122370000D01*
X167850000Y-113830000D02*
X164550000Y-113830000D01*
X167850000Y-112370000D02*
X167850000Y-113830000D01*
X164550000Y-112370000D02*
X167850000Y-112370000D01*
X164550000Y-113830000D02*
X164550000Y-112370000D01*
X164050000Y-113830000D02*
X160750000Y-113830000D01*
X164050000Y-112370000D02*
X164050000Y-113830000D01*
X160750000Y-112370000D02*
X164050000Y-112370000D01*
X160750000Y-113830000D02*
X160750000Y-112370000D01*
X167850000Y-104330000D02*
X164550000Y-104330000D01*
X167850000Y-102870000D02*
X167850000Y-104330000D01*
X164550000Y-102870000D02*
X167850000Y-102870000D01*
X164550000Y-104330000D02*
X164550000Y-102870000D01*
X164050000Y-104330000D02*
X160750000Y-104330000D01*
X164050000Y-102870000D02*
X164050000Y-104330000D01*
X160750000Y-102870000D02*
X164050000Y-102870000D01*
X160750000Y-104330000D02*
X160750000Y-102870000D01*
X167825000Y-94030000D02*
X164525000Y-94030000D01*
X167825000Y-92570000D02*
X167825000Y-94030000D01*
X164525000Y-92570000D02*
X167825000Y-92570000D01*
X164525000Y-94030000D02*
X164525000Y-92570000D01*
X164025000Y-94030000D02*
X160725000Y-94030000D01*
X164025000Y-92570000D02*
X164025000Y-94030000D01*
X160725000Y-92570000D02*
X164025000Y-92570000D01*
X160725000Y-94030000D02*
X160725000Y-92570000D01*
X167850000Y-83530000D02*
X164550000Y-83530000D01*
X167850000Y-82070000D02*
X167850000Y-83530000D01*
X164550000Y-82070000D02*
X167850000Y-82070000D01*
X164550000Y-83530000D02*
X164550000Y-82070000D01*
X164050000Y-83530000D02*
X160750000Y-83530000D01*
X164050000Y-82070000D02*
X164050000Y-83530000D01*
X160750000Y-82070000D02*
X164050000Y-82070000D01*
X160750000Y-83530000D02*
X160750000Y-82070000D01*
X167850000Y-73430000D02*
X164550000Y-73430000D01*
X167850000Y-71970000D02*
X167850000Y-73430000D01*
X164550000Y-71970000D02*
X167850000Y-71970000D01*
X164550000Y-73430000D02*
X164550000Y-71970000D01*
X164050000Y-73430000D02*
X160750000Y-73430000D01*
X164050000Y-71970000D02*
X164050000Y-73430000D01*
X160750000Y-71970000D02*
X164050000Y-71970000D01*
X160750000Y-73430000D02*
X160750000Y-71970000D01*
X167750000Y-63580000D02*
X164450000Y-63580000D01*
X167750000Y-62120000D02*
X167750000Y-63580000D01*
X164450000Y-62120000D02*
X167750000Y-62120000D01*
X164450000Y-63580000D02*
X164450000Y-62120000D01*
X163950000Y-63580000D02*
X160650000Y-63580000D01*
X163950000Y-62120000D02*
X163950000Y-63580000D01*
X160650000Y-62120000D02*
X163950000Y-62120000D01*
X160650000Y-63580000D02*
X160650000Y-62120000D01*
X167650000Y-54030000D02*
X164350000Y-54030000D01*
X167650000Y-52570000D02*
X167650000Y-54030000D01*
X164350000Y-52570000D02*
X167650000Y-52570000D01*
X164350000Y-54030000D02*
X164350000Y-52570000D01*
X163850000Y-54030000D02*
X160550000Y-54030000D01*
X163850000Y-52570000D02*
X163850000Y-54030000D01*
X160550000Y-52570000D02*
X163850000Y-52570000D01*
X160550000Y-54030000D02*
X160550000Y-52570000D01*
X170050000Y-116550000D02*
X170050000Y-120250000D01*
X168150000Y-116550000D02*
X170050000Y-116550000D01*
X168150000Y-120250000D02*
X168150000Y-116550000D01*
X170050000Y-120250000D02*
X168150000Y-120250000D01*
X167850000Y-122180000D02*
X164550000Y-122180000D01*
X167850000Y-120720000D02*
X167850000Y-122180000D01*
X164550000Y-120720000D02*
X167850000Y-120720000D01*
X164550000Y-122180000D02*
X164550000Y-120720000D01*
X175750000Y-118130000D02*
X172450000Y-118130000D01*
X175750000Y-116670000D02*
X175750000Y-118130000D01*
X172450000Y-116670000D02*
X175750000Y-116670000D01*
X172450000Y-118130000D02*
X172450000Y-116670000D01*
X164050000Y-122180000D02*
X160750000Y-122180000D01*
X164050000Y-120720000D02*
X164050000Y-122180000D01*
X160750000Y-120720000D02*
X164050000Y-120720000D01*
X160750000Y-122180000D02*
X160750000Y-120720000D01*
X175750000Y-124130000D02*
X172450000Y-124130000D01*
X175750000Y-122670000D02*
X175750000Y-124130000D01*
X172450000Y-122670000D02*
X175750000Y-122670000D01*
X172450000Y-124130000D02*
X172450000Y-122670000D01*
X161450000Y-116750000D02*
X161450000Y-120450000D01*
X159550000Y-116750000D02*
X161450000Y-116750000D01*
X159550000Y-120450000D02*
X159550000Y-116750000D01*
X161450000Y-120450000D02*
X159550000Y-120450000D01*
X170050000Y-106550000D02*
X170050000Y-110250000D01*
X168150000Y-106550000D02*
X170050000Y-106550000D01*
X168150000Y-110250000D02*
X168150000Y-106550000D01*
X170050000Y-110250000D02*
X168150000Y-110250000D01*
X167850000Y-112180000D02*
X164550000Y-112180000D01*
X167850000Y-110720000D02*
X167850000Y-112180000D01*
X164550000Y-110720000D02*
X167850000Y-110720000D01*
X164550000Y-112180000D02*
X164550000Y-110720000D01*
X175750000Y-108130000D02*
X172450000Y-108130000D01*
X175750000Y-106670000D02*
X175750000Y-108130000D01*
X172450000Y-106670000D02*
X175750000Y-106670000D01*
X172450000Y-108130000D02*
X172450000Y-106670000D01*
X164050000Y-112180000D02*
X160750000Y-112180000D01*
X164050000Y-110720000D02*
X164050000Y-112180000D01*
X160750000Y-110720000D02*
X164050000Y-110720000D01*
X160750000Y-112180000D02*
X160750000Y-110720000D01*
X175750000Y-114130000D02*
X172450000Y-114130000D01*
X175750000Y-112670000D02*
X175750000Y-114130000D01*
X172450000Y-112670000D02*
X175750000Y-112670000D01*
X172450000Y-114130000D02*
X172450000Y-112670000D01*
X161450000Y-106750000D02*
X161450000Y-110450000D01*
X159550000Y-106750000D02*
X161450000Y-106750000D01*
X159550000Y-110450000D02*
X159550000Y-106750000D01*
X161450000Y-110450000D02*
X159550000Y-110450000D01*
X170050000Y-97050000D02*
X170050000Y-100750000D01*
X168150000Y-97050000D02*
X170050000Y-97050000D01*
X168150000Y-100750000D02*
X168150000Y-97050000D01*
X170050000Y-100750000D02*
X168150000Y-100750000D01*
X167850000Y-102680000D02*
X164550000Y-102680000D01*
X167850000Y-101220000D02*
X167850000Y-102680000D01*
X164550000Y-101220000D02*
X167850000Y-101220000D01*
X164550000Y-102680000D02*
X164550000Y-101220000D01*
X175750000Y-98630000D02*
X172450000Y-98630000D01*
X175750000Y-97170000D02*
X175750000Y-98630000D01*
X172450000Y-97170000D02*
X175750000Y-97170000D01*
X172450000Y-98630000D02*
X172450000Y-97170000D01*
X164050000Y-102680000D02*
X160750000Y-102680000D01*
X164050000Y-101220000D02*
X164050000Y-102680000D01*
X160750000Y-101220000D02*
X164050000Y-101220000D01*
X160750000Y-102680000D02*
X160750000Y-101220000D01*
X175750000Y-104630000D02*
X172450000Y-104630000D01*
X175750000Y-103170000D02*
X175750000Y-104630000D01*
X172450000Y-103170000D02*
X175750000Y-103170000D01*
X172450000Y-104630000D02*
X172450000Y-103170000D01*
X161450000Y-97250000D02*
X161450000Y-100950000D01*
X159550000Y-97250000D02*
X161450000Y-97250000D01*
X159550000Y-100950000D02*
X159550000Y-97250000D01*
X161450000Y-100950000D02*
X159550000Y-100950000D01*
X170025000Y-86750000D02*
X170025000Y-90450000D01*
X168125000Y-86750000D02*
X170025000Y-86750000D01*
X168125000Y-90450000D02*
X168125000Y-86750000D01*
X170025000Y-90450000D02*
X168125000Y-90450000D01*
X167825000Y-92380000D02*
X164525000Y-92380000D01*
X167825000Y-90920000D02*
X167825000Y-92380000D01*
X164525000Y-90920000D02*
X167825000Y-90920000D01*
X164525000Y-92380000D02*
X164525000Y-90920000D01*
X175725000Y-88330000D02*
X172425000Y-88330000D01*
X175725000Y-86870000D02*
X175725000Y-88330000D01*
X172425000Y-86870000D02*
X175725000Y-86870000D01*
X172425000Y-88330000D02*
X172425000Y-86870000D01*
X164025000Y-92380000D02*
X160725000Y-92380000D01*
X164025000Y-90920000D02*
X164025000Y-92380000D01*
X160725000Y-90920000D02*
X164025000Y-90920000D01*
X160725000Y-92380000D02*
X160725000Y-90920000D01*
X175725000Y-94330000D02*
X172425000Y-94330000D01*
X175725000Y-92870000D02*
X175725000Y-94330000D01*
X172425000Y-92870000D02*
X175725000Y-92870000D01*
X172425000Y-94330000D02*
X172425000Y-92870000D01*
X161425000Y-86950000D02*
X161425000Y-90650000D01*
X159525000Y-86950000D02*
X161425000Y-86950000D01*
X159525000Y-90650000D02*
X159525000Y-86950000D01*
X161425000Y-90650000D02*
X159525000Y-90650000D01*
X170050000Y-76250000D02*
X170050000Y-79950000D01*
X168150000Y-76250000D02*
X170050000Y-76250000D01*
X168150000Y-79950000D02*
X168150000Y-76250000D01*
X170050000Y-79950000D02*
X168150000Y-79950000D01*
X167850000Y-81880000D02*
X164550000Y-81880000D01*
X167850000Y-80420000D02*
X167850000Y-81880000D01*
X164550000Y-80420000D02*
X167850000Y-80420000D01*
X164550000Y-81880000D02*
X164550000Y-80420000D01*
X175750000Y-77830000D02*
X172450000Y-77830000D01*
X175750000Y-76370000D02*
X175750000Y-77830000D01*
X172450000Y-76370000D02*
X175750000Y-76370000D01*
X172450000Y-77830000D02*
X172450000Y-76370000D01*
X164050000Y-81880000D02*
X160750000Y-81880000D01*
X164050000Y-80420000D02*
X164050000Y-81880000D01*
X160750000Y-80420000D02*
X164050000Y-80420000D01*
X160750000Y-81880000D02*
X160750000Y-80420000D01*
X175750000Y-83830000D02*
X172450000Y-83830000D01*
X175750000Y-82370000D02*
X175750000Y-83830000D01*
X172450000Y-82370000D02*
X175750000Y-82370000D01*
X172450000Y-83830000D02*
X172450000Y-82370000D01*
X161450000Y-76450000D02*
X161450000Y-80150000D01*
X159550000Y-76450000D02*
X161450000Y-76450000D01*
X159550000Y-80150000D02*
X159550000Y-76450000D01*
X161450000Y-80150000D02*
X159550000Y-80150000D01*
X170050000Y-66150000D02*
X170050000Y-69850000D01*
X168150000Y-66150000D02*
X170050000Y-66150000D01*
X168150000Y-69850000D02*
X168150000Y-66150000D01*
X170050000Y-69850000D02*
X168150000Y-69850000D01*
X167850000Y-71780000D02*
X164550000Y-71780000D01*
X167850000Y-70320000D02*
X167850000Y-71780000D01*
X164550000Y-70320000D02*
X167850000Y-70320000D01*
X164550000Y-71780000D02*
X164550000Y-70320000D01*
X175750000Y-67730000D02*
X172450000Y-67730000D01*
X175750000Y-66270000D02*
X175750000Y-67730000D01*
X172450000Y-66270000D02*
X175750000Y-66270000D01*
X172450000Y-67730000D02*
X172450000Y-66270000D01*
X164050000Y-71780000D02*
X160750000Y-71780000D01*
X164050000Y-70320000D02*
X164050000Y-71780000D01*
X160750000Y-70320000D02*
X164050000Y-70320000D01*
X160750000Y-71780000D02*
X160750000Y-70320000D01*
X175750000Y-73730000D02*
X172450000Y-73730000D01*
X175750000Y-72270000D02*
X175750000Y-73730000D01*
X172450000Y-72270000D02*
X175750000Y-72270000D01*
X172450000Y-73730000D02*
X172450000Y-72270000D01*
X161450000Y-66350000D02*
X161450000Y-70050000D01*
X159550000Y-66350000D02*
X161450000Y-66350000D01*
X159550000Y-70050000D02*
X159550000Y-66350000D01*
X161450000Y-70050000D02*
X159550000Y-70050000D01*
X169950000Y-56300000D02*
X169950000Y-60000000D01*
X168050000Y-56300000D02*
X169950000Y-56300000D01*
X168050000Y-60000000D02*
X168050000Y-56300000D01*
X169950000Y-60000000D02*
X168050000Y-60000000D01*
X167750000Y-61930000D02*
X164450000Y-61930000D01*
X167750000Y-60470000D02*
X167750000Y-61930000D01*
X164450000Y-60470000D02*
X167750000Y-60470000D01*
X164450000Y-61930000D02*
X164450000Y-60470000D01*
X175650000Y-57880000D02*
X172350000Y-57880000D01*
X175650000Y-56420000D02*
X175650000Y-57880000D01*
X172350000Y-56420000D02*
X175650000Y-56420000D01*
X172350000Y-57880000D02*
X172350000Y-56420000D01*
X163950000Y-61930000D02*
X160650000Y-61930000D01*
X163950000Y-60470000D02*
X163950000Y-61930000D01*
X160650000Y-60470000D02*
X163950000Y-60470000D01*
X160650000Y-61930000D02*
X160650000Y-60470000D01*
X175650000Y-63880000D02*
X172350000Y-63880000D01*
X175650000Y-62420000D02*
X175650000Y-63880000D01*
X172350000Y-62420000D02*
X175650000Y-62420000D01*
X172350000Y-63880000D02*
X172350000Y-62420000D01*
X161350000Y-56500000D02*
X161350000Y-60200000D01*
X159450000Y-56500000D02*
X161350000Y-56500000D01*
X159450000Y-60200000D02*
X159450000Y-56500000D01*
X161350000Y-60200000D02*
X159450000Y-60200000D01*
X169850000Y-46750000D02*
X169850000Y-50450000D01*
X167950000Y-46750000D02*
X169850000Y-46750000D01*
X167950000Y-50450000D02*
X167950000Y-46750000D01*
X169850000Y-50450000D02*
X167950000Y-50450000D01*
X167650000Y-52380000D02*
X164350000Y-52380000D01*
X167650000Y-50920000D02*
X167650000Y-52380000D01*
X164350000Y-50920000D02*
X167650000Y-50920000D01*
X164350000Y-52380000D02*
X164350000Y-50920000D01*
X175550000Y-48330000D02*
X172250000Y-48330000D01*
X175550000Y-46870000D02*
X175550000Y-48330000D01*
X172250000Y-46870000D02*
X175550000Y-46870000D01*
X172250000Y-48330000D02*
X172250000Y-46870000D01*
X163850000Y-52380000D02*
X160550000Y-52380000D01*
X163850000Y-50920000D02*
X163850000Y-52380000D01*
X160550000Y-50920000D02*
X163850000Y-50920000D01*
X160550000Y-52380000D02*
X160550000Y-50920000D01*
X175550000Y-54330000D02*
X172250000Y-54330000D01*
X175550000Y-52870000D02*
X175550000Y-54330000D01*
X172250000Y-52870000D02*
X175550000Y-52870000D01*
X172250000Y-54330000D02*
X172250000Y-52870000D01*
X161250000Y-46950000D02*
X161250000Y-50650000D01*
X159350000Y-46950000D02*
X161250000Y-46950000D01*
X159350000Y-50650000D02*
X159350000Y-46950000D01*
X161250000Y-50650000D02*
X159350000Y-50650000D01*
X152070000Y-121250000D02*
X152070000Y-117950000D01*
X153530000Y-121250000D02*
X152070000Y-121250000D01*
X153530000Y-117950000D02*
X153530000Y-121250000D01*
X152070000Y-117950000D02*
X153530000Y-117950000D01*
X150530000Y-50150000D02*
X150530000Y-53450000D01*
X149070000Y-50150000D02*
X150530000Y-50150000D01*
X149070000Y-53450000D02*
X149070000Y-50150000D01*
X150530000Y-53450000D02*
X149070000Y-53450000D01*
X142600000Y-46150000D02*
X142600000Y-53050000D01*
X148100000Y-46150000D02*
X142600000Y-46150000D01*
X148100000Y-53050000D02*
X148100000Y-46150000D01*
X142600000Y-53050000D02*
X148100000Y-53050000D01*
X146200000Y-123450000D02*
X146200000Y-116550000D01*
X140700000Y-123450000D02*
X146200000Y-123450000D01*
X140700000Y-116550000D02*
X140700000Y-123450000D01*
X146200000Y-116550000D02*
X140700000Y-116550000D01*
X148950000Y-47870000D02*
X152250000Y-47870000D01*
X148950000Y-49330000D02*
X148950000Y-47870000D01*
X152250000Y-49330000D02*
X148950000Y-49330000D01*
X152250000Y-47870000D02*
X152250000Y-49330000D01*
X151530000Y-117950000D02*
X151530000Y-121250000D01*
X150070000Y-117950000D02*
X151530000Y-117950000D01*
X150070000Y-121250000D02*
X150070000Y-117950000D01*
X151530000Y-121250000D02*
X150070000Y-121250000D01*
X151270000Y-53450000D02*
X151270000Y-50150000D01*
X152730000Y-53450000D02*
X151270000Y-53450000D01*
X152730000Y-50150000D02*
X152730000Y-53450000D01*
X151270000Y-50150000D02*
X152730000Y-50150000D01*
X145420000Y-100120000D02*
X145420000Y-96520000D01*
X149220000Y-100120000D02*
X145420000Y-100120000D01*
X149220000Y-96520000D02*
X149220000Y-100120000D01*
X145420000Y-96520000D02*
X149220000Y-96520000D01*
X145700000Y-66950000D02*
X145700000Y-56050000D01*
X140200000Y-66950000D02*
X145700000Y-66950000D01*
X140200000Y-56050000D02*
X140200000Y-66950000D01*
X145700000Y-56050000D02*
X140200000Y-56050000D01*
X220800000Y-105975000D02*
X229000000Y-105975000D01*
X229000000Y-105975000D02*
X229000000Y-114175000D01*
X229000000Y-114175000D02*
X220800000Y-114175000D01*
X220800000Y-114175000D02*
X220800000Y-105975000D01*
X220900000Y-55900000D02*
X229100000Y-55900000D01*
X229100000Y-55900000D02*
X229100000Y-64100000D01*
X229100000Y-64100000D02*
X220900000Y-64100000D01*
X220900000Y-64100000D02*
X220900000Y-55900000D01*
X220900000Y-54100000D02*
X220900000Y-45900000D01*
X220900000Y-45900000D02*
X229100000Y-45900000D01*
X229100000Y-45900000D02*
X229100000Y-54100000D01*
X229100000Y-54100000D02*
X220900000Y-54100000D01*
X149150000Y-66170000D02*
X152450000Y-66170000D01*
X149150000Y-67630000D02*
X149150000Y-66170000D01*
X152450000Y-67630000D02*
X149150000Y-67630000D01*
X152450000Y-66170000D02*
X152450000Y-67630000D01*
X149950000Y-68370000D02*
X153250000Y-68370000D01*
X149950000Y-69830000D02*
X149950000Y-68370000D01*
X153250000Y-69830000D02*
X149950000Y-69830000D01*
X153250000Y-68370000D02*
X153250000Y-69830000D01*
X152700000Y-65400000D02*
X152700000Y-58000000D01*
X147300000Y-65400000D02*
X152700000Y-65400000D01*
X147300000Y-58000000D02*
X147300000Y-65400000D01*
X152700000Y-58000000D02*
X147300000Y-58000000D01*
X144050000Y-78450000D02*
X144050000Y-86350000D01*
X151150000Y-78450000D02*
X151150000Y-86350000D01*
X151150000Y-86350000D02*
X144050000Y-86350000D01*
X151150000Y-78450000D02*
X144050000Y-78450000D01*
X154730000Y-61850000D02*
X154730000Y-65150000D01*
X153270000Y-61850000D02*
X154730000Y-61850000D01*
X153270000Y-65150000D02*
X153270000Y-61850000D01*
X154730000Y-65150000D02*
X153270000Y-65150000D01*
X149350000Y-56170000D02*
X152650000Y-56170000D01*
X149350000Y-57630000D02*
X149350000Y-56170000D01*
X152650000Y-57630000D02*
X149350000Y-57630000D01*
X152650000Y-56170000D02*
X152650000Y-57630000D01*
X146870000Y-77050000D02*
X146870000Y-73750000D01*
X148330000Y-77050000D02*
X146870000Y-77050000D01*
X148330000Y-73750000D02*
X148330000Y-77050000D01*
X146870000Y-73750000D02*
X148330000Y-73750000D01*
X148870000Y-77050000D02*
X148870000Y-73750000D01*
X150330000Y-77050000D02*
X148870000Y-77050000D01*
X150330000Y-73750000D02*
X150330000Y-77050000D01*
X148870000Y-73750000D02*
X150330000Y-73750000D01*
X217650000Y-120020000D02*
X217650000Y-123380000D01*
X215750000Y-120020000D02*
X217650000Y-120020000D01*
X215750000Y-123380000D02*
X215750000Y-120020000D01*
X217650000Y-123380000D02*
X215750000Y-123380000D01*
X213650000Y-120020000D02*
X213650000Y-123380000D01*
X211750000Y-120020000D02*
X213650000Y-120020000D01*
X211750000Y-123380000D02*
X211750000Y-120020000D01*
X213650000Y-123380000D02*
X211750000Y-123380000D01*
X210050000Y-123980000D02*
X206750000Y-123980000D01*
X210050000Y-122520000D02*
X210050000Y-123980000D01*
X206750000Y-122520000D02*
X210050000Y-122520000D01*
X206750000Y-123980000D02*
X206750000Y-122520000D01*
X217650000Y-110020000D02*
X217650000Y-113380000D01*
X215750000Y-110020000D02*
X217650000Y-110020000D01*
X215750000Y-113380000D02*
X215750000Y-110020000D01*
X217650000Y-113380000D02*
X215750000Y-113380000D01*
X213650000Y-110020000D02*
X213650000Y-113380000D01*
X211750000Y-110020000D02*
X213650000Y-110020000D01*
X211750000Y-113380000D02*
X211750000Y-110020000D01*
X213650000Y-113380000D02*
X211750000Y-113380000D01*
X210050000Y-113980000D02*
X206750000Y-113980000D01*
X210050000Y-112520000D02*
X210050000Y-113980000D01*
X206750000Y-112520000D02*
X210050000Y-112520000D01*
X206750000Y-113980000D02*
X206750000Y-112520000D01*
X217650000Y-100520000D02*
X217650000Y-103880000D01*
X215750000Y-100520000D02*
X217650000Y-100520000D01*
X215750000Y-103880000D02*
X215750000Y-100520000D01*
X217650000Y-103880000D02*
X215750000Y-103880000D01*
X213650000Y-100520000D02*
X213650000Y-103880000D01*
X211750000Y-100520000D02*
X213650000Y-100520000D01*
X211750000Y-103880000D02*
X211750000Y-100520000D01*
X213650000Y-103880000D02*
X211750000Y-103880000D01*
X210050000Y-104480000D02*
X206750000Y-104480000D01*
X210050000Y-103020000D02*
X210050000Y-104480000D01*
X206750000Y-103020000D02*
X210050000Y-103020000D01*
X206750000Y-104480000D02*
X206750000Y-103020000D01*
X217625000Y-90220000D02*
X217625000Y-93580000D01*
X215725000Y-90220000D02*
X217625000Y-90220000D01*
X215725000Y-93580000D02*
X215725000Y-90220000D01*
X217625000Y-93580000D02*
X215725000Y-93580000D01*
X213625000Y-90220000D02*
X213625000Y-93580000D01*
X211725000Y-90220000D02*
X213625000Y-90220000D01*
X211725000Y-93580000D02*
X211725000Y-90220000D01*
X213625000Y-93580000D02*
X211725000Y-93580000D01*
X210025000Y-94180000D02*
X206725000Y-94180000D01*
X210025000Y-92720000D02*
X210025000Y-94180000D01*
X206725000Y-92720000D02*
X210025000Y-92720000D01*
X206725000Y-94180000D02*
X206725000Y-92720000D01*
X217650000Y-79720000D02*
X217650000Y-83080000D01*
X215750000Y-79720000D02*
X217650000Y-79720000D01*
X215750000Y-83080000D02*
X215750000Y-79720000D01*
X217650000Y-83080000D02*
X215750000Y-83080000D01*
X213650000Y-79720000D02*
X213650000Y-83080000D01*
X211750000Y-79720000D02*
X213650000Y-79720000D01*
X211750000Y-83080000D02*
X211750000Y-79720000D01*
X213650000Y-83080000D02*
X211750000Y-83080000D01*
X210050000Y-83680000D02*
X206750000Y-83680000D01*
X210050000Y-82220000D02*
X210050000Y-83680000D01*
X206750000Y-82220000D02*
X210050000Y-82220000D01*
X206750000Y-83680000D02*
X206750000Y-82220000D01*
X217650000Y-69620000D02*
X217650000Y-72980000D01*
X215750000Y-69620000D02*
X217650000Y-69620000D01*
X215750000Y-72980000D02*
X215750000Y-69620000D01*
X217650000Y-72980000D02*
X215750000Y-72980000D01*
X213650000Y-69620000D02*
X213650000Y-72980000D01*
X211750000Y-69620000D02*
X213650000Y-69620000D01*
X211750000Y-72980000D02*
X211750000Y-69620000D01*
X213650000Y-72980000D02*
X211750000Y-72980000D01*
X210050000Y-73580000D02*
X206750000Y-73580000D01*
X210050000Y-72120000D02*
X210050000Y-73580000D01*
X206750000Y-72120000D02*
X210050000Y-72120000D01*
X206750000Y-73580000D02*
X206750000Y-72120000D01*
X217550000Y-59770000D02*
X217550000Y-63130000D01*
X215650000Y-59770000D02*
X217550000Y-59770000D01*
X215650000Y-63130000D02*
X215650000Y-59770000D01*
X217550000Y-63130000D02*
X215650000Y-63130000D01*
X213550000Y-59770000D02*
X213550000Y-63130000D01*
X211650000Y-59770000D02*
X213550000Y-59770000D01*
X211650000Y-63130000D02*
X211650000Y-59770000D01*
X213550000Y-63130000D02*
X211650000Y-63130000D01*
X209950000Y-63730000D02*
X206650000Y-63730000D01*
X209950000Y-62270000D02*
X209950000Y-63730000D01*
X206650000Y-62270000D02*
X209950000Y-62270000D01*
X206650000Y-63730000D02*
X206650000Y-62270000D01*
X206800000Y-122300000D02*
X210000000Y-122300000D01*
X206800000Y-119500000D02*
X210000000Y-119500000D01*
X206800000Y-119500000D02*
X206800000Y-122300000D01*
X210000000Y-122300000D02*
X210000000Y-119500000D01*
X206800000Y-112300000D02*
X210000000Y-112300000D01*
X206800000Y-109500000D02*
X210000000Y-109500000D01*
X206800000Y-109500000D02*
X206800000Y-112300000D01*
X210000000Y-112300000D02*
X210000000Y-109500000D01*
X206800000Y-102800000D02*
X210000000Y-102800000D01*
X206800000Y-100000000D02*
X210000000Y-100000000D01*
X206800000Y-100000000D02*
X206800000Y-102800000D01*
X210000000Y-102800000D02*
X210000000Y-100000000D01*
X206775000Y-92500000D02*
X209975000Y-92500000D01*
X206775000Y-89700000D02*
X209975000Y-89700000D01*
X206775000Y-89700000D02*
X206775000Y-92500000D01*
X209975000Y-92500000D02*
X209975000Y-89700000D01*
X206800000Y-82000000D02*
X210000000Y-82000000D01*
X206800000Y-79200000D02*
X210000000Y-79200000D01*
X206800000Y-79200000D02*
X206800000Y-82000000D01*
X210000000Y-82000000D02*
X210000000Y-79200000D01*
X206800000Y-71900000D02*
X210000000Y-71900000D01*
X206800000Y-69100000D02*
X210000000Y-69100000D01*
X206800000Y-69100000D02*
X206800000Y-71900000D01*
X210000000Y-71900000D02*
X210000000Y-69100000D01*
X206700000Y-62050000D02*
X209900000Y-62050000D01*
X206700000Y-59250000D02*
X209900000Y-59250000D01*
X206700000Y-59250000D02*
X206700000Y-62050000D01*
X209900000Y-62050000D02*
X209900000Y-59250000D01*
X205950000Y-124300000D02*
X202250000Y-124300000D01*
X205950000Y-122400000D02*
X205950000Y-124300000D01*
X202250000Y-122400000D02*
X205950000Y-122400000D01*
X202250000Y-124300000D02*
X202250000Y-122400000D01*
X208950000Y-118500000D02*
X205250000Y-118500000D01*
X208950000Y-116600000D02*
X208950000Y-118500000D01*
X205250000Y-116600000D02*
X208950000Y-116600000D01*
X205250000Y-118500000D02*
X205250000Y-116600000D01*
X205950000Y-114300000D02*
X202250000Y-114300000D01*
X205950000Y-112400000D02*
X205950000Y-114300000D01*
X202250000Y-112400000D02*
X205950000Y-112400000D01*
X202250000Y-114300000D02*
X202250000Y-112400000D01*
X208950000Y-108500000D02*
X205250000Y-108500000D01*
X208950000Y-106600000D02*
X208950000Y-108500000D01*
X205250000Y-106600000D02*
X208950000Y-106600000D01*
X205250000Y-108500000D02*
X205250000Y-106600000D01*
X205950000Y-104800000D02*
X202250000Y-104800000D01*
X205950000Y-102900000D02*
X205950000Y-104800000D01*
X202250000Y-102900000D02*
X205950000Y-102900000D01*
X202250000Y-104800000D02*
X202250000Y-102900000D01*
X208950000Y-99000000D02*
X205250000Y-99000000D01*
X208950000Y-97100000D02*
X208950000Y-99000000D01*
X205250000Y-97100000D02*
X208950000Y-97100000D01*
X205250000Y-99000000D02*
X205250000Y-97100000D01*
X205925000Y-94500000D02*
X202225000Y-94500000D01*
X205925000Y-92600000D02*
X205925000Y-94500000D01*
X202225000Y-92600000D02*
X205925000Y-92600000D01*
X202225000Y-94500000D02*
X202225000Y-92600000D01*
X208925000Y-88700000D02*
X205225000Y-88700000D01*
X208925000Y-86800000D02*
X208925000Y-88700000D01*
X205225000Y-86800000D02*
X208925000Y-86800000D01*
X205225000Y-88700000D02*
X205225000Y-86800000D01*
X205950000Y-84000000D02*
X202250000Y-84000000D01*
X205950000Y-82100000D02*
X205950000Y-84000000D01*
X202250000Y-82100000D02*
X205950000Y-82100000D01*
X202250000Y-84000000D02*
X202250000Y-82100000D01*
X208950000Y-78200000D02*
X205250000Y-78200000D01*
X208950000Y-76300000D02*
X208950000Y-78200000D01*
X205250000Y-76300000D02*
X208950000Y-76300000D01*
X205250000Y-78200000D02*
X205250000Y-76300000D01*
X205950000Y-73900000D02*
X202250000Y-73900000D01*
X205950000Y-72000000D02*
X205950000Y-73900000D01*
X202250000Y-72000000D02*
X205950000Y-72000000D01*
X202250000Y-73900000D02*
X202250000Y-72000000D01*
X208950000Y-68100000D02*
X205250000Y-68100000D01*
X208950000Y-66200000D02*
X208950000Y-68100000D01*
X205250000Y-66200000D02*
X208950000Y-66200000D01*
X205250000Y-68100000D02*
X205250000Y-66200000D01*
X205850000Y-64050000D02*
X202150000Y-64050000D01*
X205850000Y-62150000D02*
X205850000Y-64050000D01*
X202150000Y-62150000D02*
X205850000Y-62150000D01*
X202150000Y-64050000D02*
X202150000Y-62150000D01*
X208850000Y-58250000D02*
X205150000Y-58250000D01*
X208850000Y-56350000D02*
X208850000Y-58250000D01*
X205150000Y-56350000D02*
X208850000Y-56350000D01*
X205150000Y-58250000D02*
X205150000Y-56350000D01*
X217000000Y-119950000D02*
X212400000Y-119950000D01*
X217000000Y-119950000D02*
X217000000Y-117450000D01*
X212400000Y-117450000D02*
X212400000Y-119950000D01*
X212400000Y-117450000D02*
X217000000Y-117450000D01*
X217000000Y-109950000D02*
X212400000Y-109950000D01*
X217000000Y-109950000D02*
X217000000Y-107450000D01*
X212400000Y-107450000D02*
X212400000Y-109950000D01*
X212400000Y-107450000D02*
X217000000Y-107450000D01*
X217000000Y-100450000D02*
X212400000Y-100450000D01*
X217000000Y-100450000D02*
X217000000Y-97950000D01*
X212400000Y-97950000D02*
X212400000Y-100450000D01*
X212400000Y-97950000D02*
X217000000Y-97950000D01*
X216975000Y-90150000D02*
X212375000Y-90150000D01*
X216975000Y-90150000D02*
X216975000Y-87650000D01*
X212375000Y-87650000D02*
X212375000Y-90150000D01*
X212375000Y-87650000D02*
X216975000Y-87650000D01*
X217000000Y-79650000D02*
X212400000Y-79650000D01*
X217000000Y-79650000D02*
X217000000Y-77150000D01*
X212400000Y-77150000D02*
X212400000Y-79650000D01*
X212400000Y-77150000D02*
X217000000Y-77150000D01*
X217000000Y-69550000D02*
X212400000Y-69550000D01*
X217000000Y-69550000D02*
X217000000Y-67050000D01*
X212400000Y-67050000D02*
X212400000Y-69550000D01*
X212400000Y-67050000D02*
X217000000Y-67050000D01*
X216900000Y-59700000D02*
X212300000Y-59700000D01*
X216900000Y-59700000D02*
X216900000Y-57200000D01*
X212300000Y-57200000D02*
X212300000Y-59700000D01*
X212300000Y-57200000D02*
X216900000Y-57200000D01*
X220900000Y-115900000D02*
X229100000Y-115900000D01*
X229100000Y-115900000D02*
X229100000Y-124100000D01*
X229100000Y-124100000D02*
X220900000Y-124100000D01*
X220900000Y-124100000D02*
X220900000Y-115900000D01*
X220900000Y-95900000D02*
X229100000Y-95900000D01*
X229100000Y-95900000D02*
X229100000Y-104100000D01*
X229100000Y-104100000D02*
X220900000Y-104100000D01*
X220900000Y-104100000D02*
X220900000Y-95900000D01*
X220900000Y-85900000D02*
X229100000Y-85900000D01*
X229100000Y-85900000D02*
X229100000Y-94100000D01*
X229100000Y-94100000D02*
X220900000Y-94100000D01*
X220900000Y-94100000D02*
X220900000Y-85900000D01*
X220900000Y-75900000D02*
X229100000Y-75900000D01*
X229100000Y-75900000D02*
X229100000Y-84100000D01*
X229100000Y-84100000D02*
X220900000Y-84100000D01*
X220900000Y-84100000D02*
X220900000Y-75900000D01*
X220900000Y-65900000D02*
X229100000Y-65900000D01*
X229100000Y-65900000D02*
X229100000Y-74100000D01*
X229100000Y-74100000D02*
X220900000Y-74100000D01*
X220900000Y-74100000D02*
X220900000Y-65900000D01*
X193200000Y-119650000D02*
X196800000Y-119650000D01*
X193200000Y-123450000D02*
X193200000Y-119650000D01*
X196800000Y-123450000D02*
X193200000Y-123450000D01*
X196800000Y-119650000D02*
X196800000Y-123450000D01*
X189800000Y-118050000D02*
X182400000Y-118050000D01*
X189800000Y-123450000D02*
X189800000Y-118050000D01*
X182400000Y-123450000D02*
X189800000Y-123450000D01*
X182400000Y-118050000D02*
X182400000Y-123450000D01*
X193200000Y-109650000D02*
X196800000Y-109650000D01*
X193200000Y-113450000D02*
X193200000Y-109650000D01*
X196800000Y-113450000D02*
X193200000Y-113450000D01*
X196800000Y-109650000D02*
X196800000Y-113450000D01*
X189800000Y-108050000D02*
X182400000Y-108050000D01*
X189800000Y-113450000D02*
X189800000Y-108050000D01*
X182400000Y-113450000D02*
X189800000Y-113450000D01*
X182400000Y-108050000D02*
X182400000Y-113450000D01*
X193200000Y-100150000D02*
X196800000Y-100150000D01*
X193200000Y-103950000D02*
X193200000Y-100150000D01*
X196800000Y-103950000D02*
X193200000Y-103950000D01*
X196800000Y-100150000D02*
X196800000Y-103950000D01*
X189800000Y-98550000D02*
X182400000Y-98550000D01*
X189800000Y-103950000D02*
X189800000Y-98550000D01*
X182400000Y-103950000D02*
X189800000Y-103950000D01*
X182400000Y-98550000D02*
X182400000Y-103950000D01*
X193175000Y-89850000D02*
X196775000Y-89850000D01*
X193175000Y-93650000D02*
X193175000Y-89850000D01*
X196775000Y-93650000D02*
X193175000Y-93650000D01*
X196775000Y-89850000D02*
X196775000Y-93650000D01*
X189775000Y-88250000D02*
X182375000Y-88250000D01*
X189775000Y-93650000D02*
X189775000Y-88250000D01*
X182375000Y-93650000D02*
X189775000Y-93650000D01*
X182375000Y-88250000D02*
X182375000Y-93650000D01*
X193200000Y-79350000D02*
X196800000Y-79350000D01*
X193200000Y-83150000D02*
X193200000Y-79350000D01*
X196800000Y-83150000D02*
X193200000Y-83150000D01*
X196800000Y-79350000D02*
X196800000Y-83150000D01*
X189800000Y-77750000D02*
X182400000Y-77750000D01*
X189800000Y-83150000D02*
X189800000Y-77750000D01*
X182400000Y-83150000D02*
X189800000Y-83150000D01*
X182400000Y-77750000D02*
X182400000Y-83150000D01*
X193200000Y-69250000D02*
X196800000Y-69250000D01*
X193200000Y-73050000D02*
X193200000Y-69250000D01*
X196800000Y-73050000D02*
X193200000Y-73050000D01*
X196800000Y-69250000D02*
X196800000Y-73050000D01*
X189800000Y-67650000D02*
X182400000Y-67650000D01*
X189800000Y-73050000D02*
X189800000Y-67650000D01*
X182400000Y-73050000D02*
X189800000Y-73050000D01*
X182400000Y-67650000D02*
X182400000Y-73050000D01*
X193100000Y-59400000D02*
X196700000Y-59400000D01*
X193100000Y-63200000D02*
X193100000Y-59400000D01*
X196700000Y-63200000D02*
X193100000Y-63200000D01*
X196700000Y-59400000D02*
X196700000Y-63200000D01*
X189700000Y-57800000D02*
X182300000Y-57800000D01*
X189700000Y-63200000D02*
X189700000Y-57800000D01*
X182300000Y-63200000D02*
X189700000Y-63200000D01*
X182300000Y-57800000D02*
X182300000Y-63200000D01*
X191150000Y-117880000D02*
X187850000Y-117880000D01*
X191150000Y-116420000D02*
X191150000Y-117880000D01*
X187850000Y-116420000D02*
X191150000Y-116420000D01*
X187850000Y-117880000D02*
X187850000Y-116420000D01*
X182050000Y-123630000D02*
X178750000Y-123630000D01*
X182050000Y-122170000D02*
X182050000Y-123630000D01*
X178750000Y-122170000D02*
X182050000Y-122170000D01*
X178750000Y-123630000D02*
X178750000Y-122170000D01*
X192450000Y-117620000D02*
X195750000Y-117620000D01*
X192450000Y-119080000D02*
X192450000Y-117620000D01*
X195750000Y-119080000D02*
X192450000Y-119080000D01*
X195750000Y-117620000D02*
X195750000Y-119080000D01*
X198830000Y-119700000D02*
X198830000Y-123000000D01*
X197370000Y-119700000D02*
X198830000Y-119700000D01*
X197370000Y-123000000D02*
X197370000Y-119700000D01*
X198830000Y-123000000D02*
X197370000Y-123000000D01*
X191150000Y-107880000D02*
X187850000Y-107880000D01*
X191150000Y-106420000D02*
X191150000Y-107880000D01*
X187850000Y-106420000D02*
X191150000Y-106420000D01*
X187850000Y-107880000D02*
X187850000Y-106420000D01*
X182050000Y-113630000D02*
X178750000Y-113630000D01*
X182050000Y-112170000D02*
X182050000Y-113630000D01*
X178750000Y-112170000D02*
X182050000Y-112170000D01*
X178750000Y-113630000D02*
X178750000Y-112170000D01*
X192450000Y-107620000D02*
X195750000Y-107620000D01*
X192450000Y-109080000D02*
X192450000Y-107620000D01*
X195750000Y-109080000D02*
X192450000Y-109080000D01*
X195750000Y-107620000D02*
X195750000Y-109080000D01*
X198830000Y-109700000D02*
X198830000Y-113000000D01*
X197370000Y-109700000D02*
X198830000Y-109700000D01*
X197370000Y-113000000D02*
X197370000Y-109700000D01*
X198830000Y-113000000D02*
X197370000Y-113000000D01*
X191150000Y-98380000D02*
X187850000Y-98380000D01*
X191150000Y-96920000D02*
X191150000Y-98380000D01*
X187850000Y-96920000D02*
X191150000Y-96920000D01*
X187850000Y-98380000D02*
X187850000Y-96920000D01*
X182050000Y-104130000D02*
X178750000Y-104130000D01*
X182050000Y-102670000D02*
X182050000Y-104130000D01*
X178750000Y-102670000D02*
X182050000Y-102670000D01*
X178750000Y-104130000D02*
X178750000Y-102670000D01*
X192450000Y-98120000D02*
X195750000Y-98120000D01*
X192450000Y-99580000D02*
X192450000Y-98120000D01*
X195750000Y-99580000D02*
X192450000Y-99580000D01*
X195750000Y-98120000D02*
X195750000Y-99580000D01*
X198830000Y-100200000D02*
X198830000Y-103500000D01*
X197370000Y-100200000D02*
X198830000Y-100200000D01*
X197370000Y-103500000D02*
X197370000Y-100200000D01*
X198830000Y-103500000D02*
X197370000Y-103500000D01*
X191125000Y-88080000D02*
X187825000Y-88080000D01*
X191125000Y-86620000D02*
X191125000Y-88080000D01*
X187825000Y-86620000D02*
X191125000Y-86620000D01*
X187825000Y-88080000D02*
X187825000Y-86620000D01*
X182025000Y-93830000D02*
X178725000Y-93830000D01*
X182025000Y-92370000D02*
X182025000Y-93830000D01*
X178725000Y-92370000D02*
X182025000Y-92370000D01*
X178725000Y-93830000D02*
X178725000Y-92370000D01*
X192425000Y-87820000D02*
X195725000Y-87820000D01*
X192425000Y-89280000D02*
X192425000Y-87820000D01*
X195725000Y-89280000D02*
X192425000Y-89280000D01*
X195725000Y-87820000D02*
X195725000Y-89280000D01*
X198805000Y-89900000D02*
X198805000Y-93200000D01*
X197345000Y-89900000D02*
X198805000Y-89900000D01*
X197345000Y-93200000D02*
X197345000Y-89900000D01*
X198805000Y-93200000D02*
X197345000Y-93200000D01*
X191150000Y-77580000D02*
X187850000Y-77580000D01*
X191150000Y-76120000D02*
X191150000Y-77580000D01*
X187850000Y-76120000D02*
X191150000Y-76120000D01*
X187850000Y-77580000D02*
X187850000Y-76120000D01*
X182050000Y-83330000D02*
X178750000Y-83330000D01*
X182050000Y-81870000D02*
X182050000Y-83330000D01*
X178750000Y-81870000D02*
X182050000Y-81870000D01*
X178750000Y-83330000D02*
X178750000Y-81870000D01*
X192450000Y-77320000D02*
X195750000Y-77320000D01*
X192450000Y-78780000D02*
X192450000Y-77320000D01*
X195750000Y-78780000D02*
X192450000Y-78780000D01*
X195750000Y-77320000D02*
X195750000Y-78780000D01*
X198830000Y-79400000D02*
X198830000Y-82700000D01*
X197370000Y-79400000D02*
X198830000Y-79400000D01*
X197370000Y-82700000D02*
X197370000Y-79400000D01*
X198830000Y-82700000D02*
X197370000Y-82700000D01*
X191150000Y-67480000D02*
X187850000Y-67480000D01*
X191150000Y-66020000D02*
X191150000Y-67480000D01*
X187850000Y-66020000D02*
X191150000Y-66020000D01*
X187850000Y-67480000D02*
X187850000Y-66020000D01*
X182050000Y-73230000D02*
X178750000Y-73230000D01*
X182050000Y-71770000D02*
X182050000Y-73230000D01*
X178750000Y-71770000D02*
X182050000Y-71770000D01*
X178750000Y-73230000D02*
X178750000Y-71770000D01*
X192450000Y-67220000D02*
X195750000Y-67220000D01*
X192450000Y-68680000D02*
X192450000Y-67220000D01*
X195750000Y-68680000D02*
X192450000Y-68680000D01*
X195750000Y-67220000D02*
X195750000Y-68680000D01*
X198830000Y-69300000D02*
X198830000Y-72600000D01*
X197370000Y-69300000D02*
X198830000Y-69300000D01*
X197370000Y-72600000D02*
X197370000Y-69300000D01*
X198830000Y-72600000D02*
X197370000Y-72600000D01*
X191050000Y-57630000D02*
X187750000Y-57630000D01*
X191050000Y-56170000D02*
X191050000Y-57630000D01*
X187750000Y-56170000D02*
X191050000Y-56170000D01*
X187750000Y-57630000D02*
X187750000Y-56170000D01*
X181950000Y-63380000D02*
X178650000Y-63380000D01*
X181950000Y-61920000D02*
X181950000Y-63380000D01*
X178650000Y-61920000D02*
X181950000Y-61920000D01*
X178650000Y-63380000D02*
X178650000Y-61920000D01*
X192350000Y-57370000D02*
X195650000Y-57370000D01*
X192350000Y-58830000D02*
X192350000Y-57370000D01*
X195650000Y-58830000D02*
X192350000Y-58830000D01*
X195650000Y-57370000D02*
X195650000Y-58830000D01*
X198730000Y-59450000D02*
X198730000Y-62750000D01*
X197270000Y-59450000D02*
X198730000Y-59450000D01*
X197270000Y-62750000D02*
X197270000Y-59450000D01*
X198730000Y-62750000D02*
X197270000Y-62750000D01*
X189600000Y-48250000D02*
X182200000Y-48250000D01*
X189600000Y-53650000D02*
X189600000Y-48250000D01*
X182200000Y-53650000D02*
X189600000Y-53650000D01*
X182200000Y-48250000D02*
X182200000Y-53650000D01*
X228450000Y-129500000D02*
G75*
G03X228450000Y-129500000I-3450000J0D01*
G01*
X228450000Y-40000000D02*
G75*
G03X228450000Y-40000000I-3450000J0D01*
G01*
X148450000Y-129000000D02*
G75*
G03X148450000Y-129000000I-3450000J0D01*
G01*
X148450000Y-40000000D02*
G75*
G03X148450000Y-40000000I-3450000J0D01*
G01*
X206600000Y-52500000D02*
X209800000Y-52500000D01*
X206600000Y-49700000D02*
X209800000Y-49700000D01*
X206600000Y-49700000D02*
X206600000Y-52500000D01*
X209800000Y-52500000D02*
X209800000Y-49700000D01*
X193000000Y-49850000D02*
X196600000Y-49850000D01*
X193000000Y-53650000D02*
X193000000Y-49850000D01*
X196600000Y-53650000D02*
X193000000Y-53650000D01*
X196600000Y-49850000D02*
X196600000Y-53650000D01*
X144650000Y-100570000D02*
X147950000Y-100570000D01*
X144650000Y-102030000D02*
X144650000Y-100570000D01*
X147950000Y-102030000D02*
X144650000Y-102030000D01*
X147950000Y-100570000D02*
X147950000Y-102030000D01*
X144530000Y-97150000D02*
X144530000Y-100450000D01*
X143070000Y-97150000D02*
X144530000Y-97150000D01*
X143070000Y-100450000D02*
X143070000Y-97150000D01*
X144530000Y-100450000D02*
X143070000Y-100450000D01*
X149575000Y-95930000D02*
X146275000Y-95930000D01*
X149575000Y-94470000D02*
X149575000Y-95930000D01*
X146275000Y-94470000D02*
X149575000Y-94470000D01*
X146275000Y-95930000D02*
X146275000Y-94470000D01*
X205750000Y-54500000D02*
X202050000Y-54500000D01*
X205750000Y-52600000D02*
X205750000Y-54500000D01*
X202050000Y-52600000D02*
X205750000Y-52600000D01*
X202050000Y-54500000D02*
X202050000Y-52600000D01*
X208750000Y-48700000D02*
X205050000Y-48700000D01*
X208750000Y-46800000D02*
X208750000Y-48700000D01*
X205050000Y-46800000D02*
X208750000Y-46800000D01*
X205050000Y-48700000D02*
X205050000Y-46800000D01*
X217450000Y-50220000D02*
X217450000Y-53580000D01*
X215550000Y-50220000D02*
X217450000Y-50220000D01*
X215550000Y-53580000D02*
X215550000Y-50220000D01*
X217450000Y-53580000D02*
X215550000Y-53580000D01*
X213450000Y-50220000D02*
X213450000Y-53580000D01*
X211550000Y-50220000D02*
X213450000Y-50220000D01*
X211550000Y-53580000D02*
X211550000Y-50220000D01*
X213450000Y-53580000D02*
X211550000Y-53580000D01*
X209850000Y-54180000D02*
X206550000Y-54180000D01*
X209850000Y-52720000D02*
X209850000Y-54180000D01*
X206550000Y-52720000D02*
X209850000Y-52720000D01*
X206550000Y-54180000D02*
X206550000Y-52720000D01*
X216800000Y-50150000D02*
X212200000Y-50150000D01*
X216800000Y-50150000D02*
X216800000Y-47650000D01*
X212200000Y-47650000D02*
X212200000Y-50150000D01*
X212200000Y-47650000D02*
X216800000Y-47650000D01*
X190950000Y-48080000D02*
X187650000Y-48080000D01*
X190950000Y-46620000D02*
X190950000Y-48080000D01*
X187650000Y-46620000D02*
X190950000Y-46620000D01*
X187650000Y-48080000D02*
X187650000Y-46620000D01*
X181850000Y-53830000D02*
X178550000Y-53830000D01*
X181850000Y-52370000D02*
X181850000Y-53830000D01*
X178550000Y-52370000D02*
X181850000Y-52370000D01*
X178550000Y-53830000D02*
X178550000Y-52370000D01*
X192250000Y-47820000D02*
X195550000Y-47820000D01*
X192250000Y-49280000D02*
X192250000Y-47820000D01*
X195550000Y-49280000D02*
X192250000Y-49280000D01*
X195550000Y-47820000D02*
X195550000Y-49280000D01*
X198630000Y-49900000D02*
X198630000Y-53200000D01*
X197170000Y-49900000D02*
X198630000Y-49900000D01*
X197170000Y-53200000D02*
X197170000Y-49900000D01*
X198630000Y-53200000D02*
X197170000Y-53200000D01*
M02*
