G04 #@! TF.GenerationSoftware,KiCad,Pcbnew,(5.1.5-0)*
G04 #@! TF.CreationDate,2020-03-26T07:19:41-06:00*
G04 #@! TF.ProjectId,8ch_v3,3863685f-7633-42e6-9b69-6361645f7063,rev?*
G04 #@! TF.SameCoordinates,Original*
G04 #@! TF.FileFunction,Soldermask,Bot*
G04 #@! TF.FilePolarity,Negative*
%FSLAX46Y46*%
G04 Gerber Fmt 4.6, Leading zero omitted, Abs format (unit mm)*
G04 Created by KiCad (PCBNEW (5.1.5-0)) date 2020-03-26 07:19:41*
%MOMM*%
%LPD*%
G04 APERTURE LIST*
%ADD10C,0.100000*%
G04 APERTURE END LIST*
D10*
G36*
X225634239Y-126311467D02*
G01*
X225948282Y-126373934D01*
X226539926Y-126619001D01*
X226851758Y-126827361D01*
X227072391Y-126974783D01*
X227525217Y-127427609D01*
X227550490Y-127465433D01*
X227880999Y-127960074D01*
X228126066Y-128551718D01*
X228251000Y-129179804D01*
X228251000Y-129820196D01*
X228126066Y-130448282D01*
X227880999Y-131039926D01*
X227663504Y-131365430D01*
X227556738Y-131525217D01*
X227525216Y-131572392D01*
X227072392Y-132025216D01*
X226539926Y-132380999D01*
X225948282Y-132626066D01*
X225634239Y-132688533D01*
X225320197Y-132751000D01*
X224679803Y-132751000D01*
X224365761Y-132688533D01*
X224051718Y-132626066D01*
X223460074Y-132380999D01*
X222927608Y-132025216D01*
X222474784Y-131572392D01*
X222443263Y-131525217D01*
X222336496Y-131365430D01*
X222119001Y-131039926D01*
X221873934Y-130448282D01*
X221749000Y-129820196D01*
X221749000Y-129179804D01*
X221873934Y-128551718D01*
X222119001Y-127960074D01*
X222449510Y-127465433D01*
X222474783Y-127427609D01*
X222927609Y-126974783D01*
X223148242Y-126827361D01*
X223460074Y-126619001D01*
X224051718Y-126373934D01*
X224365761Y-126311467D01*
X224679803Y-126249000D01*
X225320197Y-126249000D01*
X225634239Y-126311467D01*
G37*
G36*
X145634239Y-125811467D02*
G01*
X145948282Y-125873934D01*
X146539926Y-126119001D01*
X146924927Y-126376251D01*
X147072391Y-126474783D01*
X147525217Y-126927609D01*
X147556738Y-126974784D01*
X147880999Y-127460074D01*
X148126066Y-128051718D01*
X148251000Y-128679804D01*
X148251000Y-129320196D01*
X148126066Y-129948282D01*
X147880999Y-130539926D01*
X147626503Y-130920805D01*
X147525217Y-131072391D01*
X147072391Y-131525217D01*
X146966477Y-131595986D01*
X146539926Y-131880999D01*
X145948282Y-132126066D01*
X145634239Y-132188533D01*
X145320197Y-132251000D01*
X144679803Y-132251000D01*
X144365761Y-132188533D01*
X144051718Y-132126066D01*
X143460074Y-131880999D01*
X143033523Y-131595986D01*
X142927609Y-131525217D01*
X142474783Y-131072391D01*
X142373497Y-130920805D01*
X142119001Y-130539926D01*
X141873934Y-129948282D01*
X141749000Y-129320196D01*
X141749000Y-128679804D01*
X141873934Y-128051718D01*
X142119001Y-127460074D01*
X142443262Y-126974784D01*
X142474783Y-126927609D01*
X142927609Y-126474783D01*
X143075073Y-126376251D01*
X143460074Y-126119001D01*
X144051718Y-125873934D01*
X144365761Y-125811467D01*
X144679803Y-125749000D01*
X145320197Y-125749000D01*
X145634239Y-125811467D01*
G37*
G36*
X227859074Y-121226000D02*
G01*
X227934072Y-121240918D01*
X228179939Y-121342759D01*
X228401212Y-121490610D01*
X228589390Y-121678788D01*
X228737241Y-121900061D01*
X228839082Y-122145928D01*
X228891000Y-122406938D01*
X228891000Y-122673062D01*
X228839082Y-122934072D01*
X228737241Y-123179939D01*
X228589390Y-123401212D01*
X228401212Y-123589390D01*
X228179939Y-123737241D01*
X228179938Y-123737242D01*
X228179937Y-123737242D01*
X227934072Y-123839082D01*
X227673063Y-123891000D01*
X227406937Y-123891000D01*
X227145928Y-123839082D01*
X226900063Y-123737242D01*
X226900062Y-123737242D01*
X226900061Y-123737241D01*
X226678788Y-123589390D01*
X226490610Y-123401212D01*
X226342759Y-123179939D01*
X226240918Y-122934072D01*
X226189000Y-122673062D01*
X226189000Y-122406938D01*
X226240918Y-122145928D01*
X226342759Y-121900061D01*
X226490610Y-121678788D01*
X226678788Y-121490610D01*
X226900061Y-121342759D01*
X227145928Y-121240918D01*
X227220926Y-121226000D01*
X227406937Y-121189000D01*
X227673063Y-121189000D01*
X227859074Y-121226000D01*
G37*
G36*
X222779074Y-121226000D02*
G01*
X222854072Y-121240918D01*
X223099939Y-121342759D01*
X223321212Y-121490610D01*
X223509390Y-121678788D01*
X223657241Y-121900061D01*
X223759082Y-122145928D01*
X223811000Y-122406938D01*
X223811000Y-122673062D01*
X223759082Y-122934072D01*
X223657241Y-123179939D01*
X223509390Y-123401212D01*
X223321212Y-123589390D01*
X223099939Y-123737241D01*
X223099938Y-123737242D01*
X223099937Y-123737242D01*
X222854072Y-123839082D01*
X222593063Y-123891000D01*
X222326937Y-123891000D01*
X222065928Y-123839082D01*
X221820063Y-123737242D01*
X221820062Y-123737242D01*
X221820061Y-123737241D01*
X221598788Y-123589390D01*
X221410610Y-123401212D01*
X221262759Y-123179939D01*
X221160918Y-122934072D01*
X221109000Y-122673062D01*
X221109000Y-122406938D01*
X221160918Y-122145928D01*
X221262759Y-121900061D01*
X221410610Y-121678788D01*
X221598788Y-121490610D01*
X221820061Y-121342759D01*
X222065928Y-121240918D01*
X222140926Y-121226000D01*
X222326937Y-121189000D01*
X222593063Y-121189000D01*
X222779074Y-121226000D01*
G37*
G36*
X144338855Y-120352140D02*
G01*
X144402618Y-120358420D01*
X144493404Y-120385960D01*
X144525336Y-120395646D01*
X144638425Y-120456094D01*
X144737554Y-120537446D01*
X144818906Y-120636575D01*
X144879354Y-120749664D01*
X144879355Y-120749668D01*
X144916580Y-120872382D01*
X144929149Y-121000000D01*
X144916580Y-121127618D01*
X144901902Y-121176004D01*
X144879354Y-121250336D01*
X144818906Y-121363425D01*
X144737554Y-121462554D01*
X144638425Y-121543906D01*
X144525336Y-121604354D01*
X144493404Y-121614040D01*
X144402618Y-121641580D01*
X144338855Y-121647860D01*
X144306974Y-121651000D01*
X143693026Y-121651000D01*
X143661145Y-121647860D01*
X143597382Y-121641580D01*
X143506596Y-121614040D01*
X143474664Y-121604354D01*
X143361575Y-121543906D01*
X143262446Y-121462554D01*
X143181094Y-121363425D01*
X143120646Y-121250336D01*
X143098098Y-121176004D01*
X143083420Y-121127618D01*
X143070851Y-121000000D01*
X143083420Y-120872382D01*
X143120645Y-120749668D01*
X143120646Y-120749664D01*
X143181094Y-120636575D01*
X143262446Y-120537446D01*
X143361575Y-120456094D01*
X143474664Y-120395646D01*
X143506596Y-120385960D01*
X143597382Y-120358420D01*
X143661145Y-120352140D01*
X143693026Y-120349000D01*
X144306974Y-120349000D01*
X144338855Y-120352140D01*
G37*
G36*
X225479487Y-118673996D02*
G01*
X225684902Y-118759082D01*
X225716255Y-118772069D01*
X225774519Y-118811000D01*
X225929339Y-118914447D01*
X226110553Y-119095661D01*
X226252932Y-119308747D01*
X226351004Y-119545513D01*
X226401000Y-119796861D01*
X226401000Y-120053139D01*
X226351004Y-120304487D01*
X226252932Y-120541253D01*
X226252931Y-120541255D01*
X226110553Y-120754339D01*
X225929339Y-120935553D01*
X225716255Y-121077931D01*
X225716254Y-121077932D01*
X225716253Y-121077932D01*
X225479487Y-121176004D01*
X225228139Y-121226000D01*
X224971861Y-121226000D01*
X224720513Y-121176004D01*
X224483747Y-121077932D01*
X224483746Y-121077932D01*
X224483745Y-121077931D01*
X224270661Y-120935553D01*
X224089447Y-120754339D01*
X223947069Y-120541255D01*
X223947068Y-120541253D01*
X223848996Y-120304487D01*
X223799000Y-120053139D01*
X223799000Y-119796861D01*
X223848996Y-119545513D01*
X223947068Y-119308747D01*
X224089447Y-119095661D01*
X224270661Y-118914447D01*
X224425481Y-118811000D01*
X224483745Y-118772069D01*
X224515098Y-118759082D01*
X224720513Y-118673996D01*
X224971861Y-118624000D01*
X225228139Y-118624000D01*
X225479487Y-118673996D01*
G37*
G36*
X144766242Y-118353404D02*
G01*
X144803337Y-118364657D01*
X144837515Y-118382925D01*
X144867481Y-118407519D01*
X144892075Y-118437485D01*
X144910343Y-118471663D01*
X144921596Y-118508758D01*
X144926000Y-118553474D01*
X144926000Y-119446526D01*
X144921596Y-119491242D01*
X144910343Y-119528337D01*
X144892075Y-119562515D01*
X144867481Y-119592481D01*
X144837515Y-119617075D01*
X144803337Y-119635343D01*
X144766242Y-119646596D01*
X144721526Y-119651000D01*
X143278474Y-119651000D01*
X143233758Y-119646596D01*
X143196663Y-119635343D01*
X143162485Y-119617075D01*
X143132519Y-119592481D01*
X143107925Y-119562515D01*
X143089657Y-119528337D01*
X143078404Y-119491242D01*
X143074000Y-119446526D01*
X143074000Y-118553474D01*
X143078404Y-118508758D01*
X143089657Y-118471663D01*
X143107925Y-118437485D01*
X143132519Y-118407519D01*
X143162485Y-118382925D01*
X143196663Y-118364657D01*
X143233758Y-118353404D01*
X143278474Y-118349000D01*
X144721526Y-118349000D01*
X144766242Y-118353404D01*
G37*
G36*
X222854072Y-116160918D02*
G01*
X223099939Y-116262759D01*
X223321212Y-116410610D01*
X223509390Y-116598788D01*
X223657241Y-116820061D01*
X223759082Y-117065928D01*
X223811000Y-117326938D01*
X223811000Y-117593062D01*
X223759082Y-117854072D01*
X223657241Y-118099939D01*
X223509390Y-118321212D01*
X223321212Y-118509390D01*
X223099939Y-118657241D01*
X223099938Y-118657242D01*
X223099937Y-118657242D01*
X222854072Y-118759082D01*
X222593063Y-118811000D01*
X222326937Y-118811000D01*
X222065928Y-118759082D01*
X221820063Y-118657242D01*
X221820062Y-118657242D01*
X221820061Y-118657241D01*
X221598788Y-118509390D01*
X221410610Y-118321212D01*
X221262759Y-118099939D01*
X221160918Y-117854072D01*
X221109000Y-117593062D01*
X221109000Y-117326938D01*
X221160918Y-117065928D01*
X221262759Y-116820061D01*
X221410610Y-116598788D01*
X221598788Y-116410610D01*
X221820061Y-116262759D01*
X222065928Y-116160918D01*
X222326937Y-116109000D01*
X222593063Y-116109000D01*
X222854072Y-116160918D01*
G37*
G36*
X227934072Y-116160918D02*
G01*
X228179939Y-116262759D01*
X228401212Y-116410610D01*
X228589390Y-116598788D01*
X228737241Y-116820061D01*
X228839082Y-117065928D01*
X228891000Y-117326938D01*
X228891000Y-117593062D01*
X228839082Y-117854072D01*
X228737241Y-118099939D01*
X228589390Y-118321212D01*
X228401212Y-118509390D01*
X228179939Y-118657241D01*
X228179938Y-118657242D01*
X228179937Y-118657242D01*
X227934072Y-118759082D01*
X227673063Y-118811000D01*
X227406937Y-118811000D01*
X227145928Y-118759082D01*
X226900063Y-118657242D01*
X226900062Y-118657242D01*
X226900061Y-118657241D01*
X226678788Y-118509390D01*
X226490610Y-118321212D01*
X226342759Y-118099939D01*
X226240918Y-117854072D01*
X226189000Y-117593062D01*
X226189000Y-117326938D01*
X226240918Y-117065928D01*
X226342759Y-116820061D01*
X226490610Y-116598788D01*
X226678788Y-116410610D01*
X226900061Y-116262759D01*
X227145928Y-116160918D01*
X227406937Y-116109000D01*
X227673063Y-116109000D01*
X227934072Y-116160918D01*
G37*
G36*
X227759074Y-111301000D02*
G01*
X227834072Y-111315918D01*
X228079939Y-111417759D01*
X228301212Y-111565610D01*
X228489390Y-111753788D01*
X228637241Y-111975061D01*
X228739082Y-112220928D01*
X228791000Y-112481938D01*
X228791000Y-112748062D01*
X228739082Y-113009072D01*
X228637241Y-113254939D01*
X228489390Y-113476212D01*
X228301212Y-113664390D01*
X228079939Y-113812241D01*
X228079938Y-113812242D01*
X228079937Y-113812242D01*
X227834072Y-113914082D01*
X227573063Y-113966000D01*
X227306937Y-113966000D01*
X227045928Y-113914082D01*
X226800063Y-113812242D01*
X226800062Y-113812242D01*
X226800061Y-113812241D01*
X226578788Y-113664390D01*
X226390610Y-113476212D01*
X226242759Y-113254939D01*
X226140918Y-113009072D01*
X226089000Y-112748062D01*
X226089000Y-112481938D01*
X226140918Y-112220928D01*
X226242759Y-111975061D01*
X226390610Y-111753788D01*
X226578788Y-111565610D01*
X226800061Y-111417759D01*
X227045928Y-111315918D01*
X227120926Y-111301000D01*
X227306937Y-111264000D01*
X227573063Y-111264000D01*
X227759074Y-111301000D01*
G37*
G36*
X222679074Y-111301000D02*
G01*
X222754072Y-111315918D01*
X222999939Y-111417759D01*
X223221212Y-111565610D01*
X223409390Y-111753788D01*
X223557241Y-111975061D01*
X223659082Y-112220928D01*
X223711000Y-112481938D01*
X223711000Y-112748062D01*
X223659082Y-113009072D01*
X223557241Y-113254939D01*
X223409390Y-113476212D01*
X223221212Y-113664390D01*
X222999939Y-113812241D01*
X222999938Y-113812242D01*
X222999937Y-113812242D01*
X222754072Y-113914082D01*
X222493063Y-113966000D01*
X222226937Y-113966000D01*
X221965928Y-113914082D01*
X221720063Y-113812242D01*
X221720062Y-113812242D01*
X221720061Y-113812241D01*
X221498788Y-113664390D01*
X221310610Y-113476212D01*
X221162759Y-113254939D01*
X221060918Y-113009072D01*
X221009000Y-112748062D01*
X221009000Y-112481938D01*
X221060918Y-112220928D01*
X221162759Y-111975061D01*
X221310610Y-111753788D01*
X221498788Y-111565610D01*
X221720061Y-111417759D01*
X221965928Y-111315918D01*
X222040926Y-111301000D01*
X222226937Y-111264000D01*
X222493063Y-111264000D01*
X222679074Y-111301000D01*
G37*
G36*
X225379487Y-108748996D02*
G01*
X225584902Y-108834082D01*
X225616255Y-108847069D01*
X225674519Y-108886000D01*
X225829339Y-108989447D01*
X226010553Y-109170661D01*
X226152932Y-109383747D01*
X226251004Y-109620513D01*
X226301000Y-109871861D01*
X226301000Y-110128139D01*
X226251004Y-110379487D01*
X226152932Y-110616253D01*
X226152931Y-110616255D01*
X226010553Y-110829339D01*
X225829339Y-111010553D01*
X225616255Y-111152931D01*
X225616254Y-111152932D01*
X225616253Y-111152932D01*
X225379487Y-111251004D01*
X225128139Y-111301000D01*
X224871861Y-111301000D01*
X224620513Y-111251004D01*
X224383747Y-111152932D01*
X224383746Y-111152932D01*
X224383745Y-111152931D01*
X224170661Y-111010553D01*
X223989447Y-110829339D01*
X223847069Y-110616255D01*
X223847068Y-110616253D01*
X223748996Y-110379487D01*
X223699000Y-110128139D01*
X223699000Y-109871861D01*
X223748996Y-109620513D01*
X223847068Y-109383747D01*
X223989447Y-109170661D01*
X224170661Y-108989447D01*
X224325481Y-108886000D01*
X224383745Y-108847069D01*
X224415098Y-108834082D01*
X224620513Y-108748996D01*
X224871861Y-108699000D01*
X225128139Y-108699000D01*
X225379487Y-108748996D01*
G37*
G36*
X222754072Y-106235918D02*
G01*
X222999939Y-106337759D01*
X223221212Y-106485610D01*
X223409390Y-106673788D01*
X223557241Y-106895061D01*
X223659082Y-107140928D01*
X223711000Y-107401938D01*
X223711000Y-107668062D01*
X223659082Y-107929072D01*
X223557241Y-108174939D01*
X223409390Y-108396212D01*
X223221212Y-108584390D01*
X222999939Y-108732241D01*
X222999938Y-108732242D01*
X222999937Y-108732242D01*
X222754072Y-108834082D01*
X222493063Y-108886000D01*
X222226937Y-108886000D01*
X221965928Y-108834082D01*
X221720063Y-108732242D01*
X221720062Y-108732242D01*
X221720061Y-108732241D01*
X221498788Y-108584390D01*
X221310610Y-108396212D01*
X221162759Y-108174939D01*
X221060918Y-107929072D01*
X221009000Y-107668062D01*
X221009000Y-107401938D01*
X221060918Y-107140928D01*
X221162759Y-106895061D01*
X221310610Y-106673788D01*
X221498788Y-106485610D01*
X221720061Y-106337759D01*
X221965928Y-106235918D01*
X222226937Y-106184000D01*
X222493063Y-106184000D01*
X222754072Y-106235918D01*
G37*
G36*
X227834072Y-106235918D02*
G01*
X228079939Y-106337759D01*
X228301212Y-106485610D01*
X228489390Y-106673788D01*
X228637241Y-106895061D01*
X228739082Y-107140928D01*
X228791000Y-107401938D01*
X228791000Y-107668062D01*
X228739082Y-107929072D01*
X228637241Y-108174939D01*
X228489390Y-108396212D01*
X228301212Y-108584390D01*
X228079939Y-108732241D01*
X228079938Y-108732242D01*
X228079937Y-108732242D01*
X227834072Y-108834082D01*
X227573063Y-108886000D01*
X227306937Y-108886000D01*
X227045928Y-108834082D01*
X226800063Y-108732242D01*
X226800062Y-108732242D01*
X226800061Y-108732241D01*
X226578788Y-108584390D01*
X226390610Y-108396212D01*
X226242759Y-108174939D01*
X226140918Y-107929072D01*
X226089000Y-107668062D01*
X226089000Y-107401938D01*
X226140918Y-107140928D01*
X226242759Y-106895061D01*
X226390610Y-106673788D01*
X226578788Y-106485610D01*
X226800061Y-106337759D01*
X227045928Y-106235918D01*
X227306937Y-106184000D01*
X227573063Y-106184000D01*
X227834072Y-106235918D01*
G37*
G36*
X222779074Y-101226000D02*
G01*
X222854072Y-101240918D01*
X223099939Y-101342759D01*
X223321212Y-101490610D01*
X223509390Y-101678788D01*
X223657241Y-101900061D01*
X223759082Y-102145928D01*
X223811000Y-102406938D01*
X223811000Y-102673062D01*
X223759082Y-102934072D01*
X223657241Y-103179939D01*
X223509390Y-103401212D01*
X223321212Y-103589390D01*
X223099939Y-103737241D01*
X223099938Y-103737242D01*
X223099937Y-103737242D01*
X222854072Y-103839082D01*
X222593063Y-103891000D01*
X222326937Y-103891000D01*
X222065928Y-103839082D01*
X221820063Y-103737242D01*
X221820062Y-103737242D01*
X221820061Y-103737241D01*
X221598788Y-103589390D01*
X221410610Y-103401212D01*
X221262759Y-103179939D01*
X221160918Y-102934072D01*
X221109000Y-102673062D01*
X221109000Y-102406938D01*
X221160918Y-102145928D01*
X221262759Y-101900061D01*
X221410610Y-101678788D01*
X221598788Y-101490610D01*
X221820061Y-101342759D01*
X222065928Y-101240918D01*
X222140926Y-101226000D01*
X222326937Y-101189000D01*
X222593063Y-101189000D01*
X222779074Y-101226000D01*
G37*
G36*
X227859074Y-101226000D02*
G01*
X227934072Y-101240918D01*
X228179939Y-101342759D01*
X228401212Y-101490610D01*
X228589390Y-101678788D01*
X228737241Y-101900061D01*
X228839082Y-102145928D01*
X228891000Y-102406938D01*
X228891000Y-102673062D01*
X228839082Y-102934072D01*
X228737241Y-103179939D01*
X228589390Y-103401212D01*
X228401212Y-103589390D01*
X228179939Y-103737241D01*
X228179938Y-103737242D01*
X228179937Y-103737242D01*
X227934072Y-103839082D01*
X227673063Y-103891000D01*
X227406937Y-103891000D01*
X227145928Y-103839082D01*
X226900063Y-103737242D01*
X226900062Y-103737242D01*
X226900061Y-103737241D01*
X226678788Y-103589390D01*
X226490610Y-103401212D01*
X226342759Y-103179939D01*
X226240918Y-102934072D01*
X226189000Y-102673062D01*
X226189000Y-102406938D01*
X226240918Y-102145928D01*
X226342759Y-101900061D01*
X226490610Y-101678788D01*
X226678788Y-101490610D01*
X226900061Y-101342759D01*
X227145928Y-101240918D01*
X227220926Y-101226000D01*
X227406937Y-101189000D01*
X227673063Y-101189000D01*
X227859074Y-101226000D01*
G37*
G36*
X225479487Y-98673996D02*
G01*
X225684902Y-98759082D01*
X225716255Y-98772069D01*
X225774519Y-98811000D01*
X225929339Y-98914447D01*
X226110553Y-99095661D01*
X226252932Y-99308747D01*
X226351004Y-99545513D01*
X226401000Y-99796861D01*
X226401000Y-100053139D01*
X226351004Y-100304487D01*
X226252932Y-100541253D01*
X226252931Y-100541255D01*
X226110553Y-100754339D01*
X225929339Y-100935553D01*
X225716255Y-101077931D01*
X225716254Y-101077932D01*
X225716253Y-101077932D01*
X225479487Y-101176004D01*
X225228139Y-101226000D01*
X224971861Y-101226000D01*
X224720513Y-101176004D01*
X224483747Y-101077932D01*
X224483746Y-101077932D01*
X224483745Y-101077931D01*
X224270661Y-100935553D01*
X224089447Y-100754339D01*
X223947069Y-100541255D01*
X223947068Y-100541253D01*
X223848996Y-100304487D01*
X223799000Y-100053139D01*
X223799000Y-99796861D01*
X223848996Y-99545513D01*
X223947068Y-99308747D01*
X224089447Y-99095661D01*
X224270661Y-98914447D01*
X224425481Y-98811000D01*
X224483745Y-98772069D01*
X224515098Y-98759082D01*
X224720513Y-98673996D01*
X224971861Y-98624000D01*
X225228139Y-98624000D01*
X225479487Y-98673996D01*
G37*
G36*
X227934072Y-96160918D02*
G01*
X228179939Y-96262759D01*
X228401212Y-96410610D01*
X228589390Y-96598788D01*
X228737241Y-96820061D01*
X228839082Y-97065928D01*
X228891000Y-97326938D01*
X228891000Y-97593062D01*
X228839082Y-97854072D01*
X228737241Y-98099939D01*
X228589390Y-98321212D01*
X228401212Y-98509390D01*
X228179939Y-98657241D01*
X228179938Y-98657242D01*
X228179937Y-98657242D01*
X227934072Y-98759082D01*
X227673063Y-98811000D01*
X227406937Y-98811000D01*
X227145928Y-98759082D01*
X226900063Y-98657242D01*
X226900062Y-98657242D01*
X226900061Y-98657241D01*
X226678788Y-98509390D01*
X226490610Y-98321212D01*
X226342759Y-98099939D01*
X226240918Y-97854072D01*
X226189000Y-97593062D01*
X226189000Y-97326938D01*
X226240918Y-97065928D01*
X226342759Y-96820061D01*
X226490610Y-96598788D01*
X226678788Y-96410610D01*
X226900061Y-96262759D01*
X227145928Y-96160918D01*
X227406937Y-96109000D01*
X227673063Y-96109000D01*
X227934072Y-96160918D01*
G37*
G36*
X222854072Y-96160918D02*
G01*
X223099939Y-96262759D01*
X223321212Y-96410610D01*
X223509390Y-96598788D01*
X223657241Y-96820061D01*
X223759082Y-97065928D01*
X223811000Y-97326938D01*
X223811000Y-97593062D01*
X223759082Y-97854072D01*
X223657241Y-98099939D01*
X223509390Y-98321212D01*
X223321212Y-98509390D01*
X223099939Y-98657241D01*
X223099938Y-98657242D01*
X223099937Y-98657242D01*
X222854072Y-98759082D01*
X222593063Y-98811000D01*
X222326937Y-98811000D01*
X222065928Y-98759082D01*
X221820063Y-98657242D01*
X221820062Y-98657242D01*
X221820061Y-98657241D01*
X221598788Y-98509390D01*
X221410610Y-98321212D01*
X221262759Y-98099939D01*
X221160918Y-97854072D01*
X221109000Y-97593062D01*
X221109000Y-97326938D01*
X221160918Y-97065928D01*
X221262759Y-96820061D01*
X221410610Y-96598788D01*
X221598788Y-96410610D01*
X221820061Y-96262759D01*
X222065928Y-96160918D01*
X222326937Y-96109000D01*
X222593063Y-96109000D01*
X222854072Y-96160918D01*
G37*
G36*
X227859074Y-91226000D02*
G01*
X227934072Y-91240918D01*
X228179939Y-91342759D01*
X228401212Y-91490610D01*
X228589390Y-91678788D01*
X228737241Y-91900061D01*
X228839082Y-92145928D01*
X228891000Y-92406938D01*
X228891000Y-92673062D01*
X228839082Y-92934072D01*
X228737241Y-93179939D01*
X228589390Y-93401212D01*
X228401212Y-93589390D01*
X228179939Y-93737241D01*
X228179938Y-93737242D01*
X228179937Y-93737242D01*
X227934072Y-93839082D01*
X227673063Y-93891000D01*
X227406937Y-93891000D01*
X227145928Y-93839082D01*
X226900063Y-93737242D01*
X226900062Y-93737242D01*
X226900061Y-93737241D01*
X226678788Y-93589390D01*
X226490610Y-93401212D01*
X226342759Y-93179939D01*
X226240918Y-92934072D01*
X226189000Y-92673062D01*
X226189000Y-92406938D01*
X226240918Y-92145928D01*
X226342759Y-91900061D01*
X226490610Y-91678788D01*
X226678788Y-91490610D01*
X226900061Y-91342759D01*
X227145928Y-91240918D01*
X227220926Y-91226000D01*
X227406937Y-91189000D01*
X227673063Y-91189000D01*
X227859074Y-91226000D01*
G37*
G36*
X222779074Y-91226000D02*
G01*
X222854072Y-91240918D01*
X223099939Y-91342759D01*
X223321212Y-91490610D01*
X223509390Y-91678788D01*
X223657241Y-91900061D01*
X223759082Y-92145928D01*
X223811000Y-92406938D01*
X223811000Y-92673062D01*
X223759082Y-92934072D01*
X223657241Y-93179939D01*
X223509390Y-93401212D01*
X223321212Y-93589390D01*
X223099939Y-93737241D01*
X223099938Y-93737242D01*
X223099937Y-93737242D01*
X222854072Y-93839082D01*
X222593063Y-93891000D01*
X222326937Y-93891000D01*
X222065928Y-93839082D01*
X221820063Y-93737242D01*
X221820062Y-93737242D01*
X221820061Y-93737241D01*
X221598788Y-93589390D01*
X221410610Y-93401212D01*
X221262759Y-93179939D01*
X221160918Y-92934072D01*
X221109000Y-92673062D01*
X221109000Y-92406938D01*
X221160918Y-92145928D01*
X221262759Y-91900061D01*
X221410610Y-91678788D01*
X221598788Y-91490610D01*
X221820061Y-91342759D01*
X222065928Y-91240918D01*
X222140926Y-91226000D01*
X222326937Y-91189000D01*
X222593063Y-91189000D01*
X222779074Y-91226000D01*
G37*
G36*
X225479487Y-88673996D02*
G01*
X225684902Y-88759082D01*
X225716255Y-88772069D01*
X225774519Y-88811000D01*
X225929339Y-88914447D01*
X226110553Y-89095661D01*
X226252932Y-89308747D01*
X226351004Y-89545513D01*
X226401000Y-89796861D01*
X226401000Y-90053139D01*
X226351004Y-90304487D01*
X226252932Y-90541253D01*
X226252931Y-90541255D01*
X226110553Y-90754339D01*
X225929339Y-90935553D01*
X225716255Y-91077931D01*
X225716254Y-91077932D01*
X225716253Y-91077932D01*
X225479487Y-91176004D01*
X225228139Y-91226000D01*
X224971861Y-91226000D01*
X224720513Y-91176004D01*
X224483747Y-91077932D01*
X224483746Y-91077932D01*
X224483745Y-91077931D01*
X224270661Y-90935553D01*
X224089447Y-90754339D01*
X223947069Y-90541255D01*
X223947068Y-90541253D01*
X223848996Y-90304487D01*
X223799000Y-90053139D01*
X223799000Y-89796861D01*
X223848996Y-89545513D01*
X223947068Y-89308747D01*
X224089447Y-89095661D01*
X224270661Y-88914447D01*
X224425481Y-88811000D01*
X224483745Y-88772069D01*
X224515098Y-88759082D01*
X224720513Y-88673996D01*
X224971861Y-88624000D01*
X225228139Y-88624000D01*
X225479487Y-88673996D01*
G37*
G36*
X222854072Y-86160918D02*
G01*
X223099939Y-86262759D01*
X223321212Y-86410610D01*
X223509390Y-86598788D01*
X223657241Y-86820061D01*
X223759082Y-87065928D01*
X223811000Y-87326938D01*
X223811000Y-87593062D01*
X223759082Y-87854072D01*
X223657241Y-88099939D01*
X223509390Y-88321212D01*
X223321212Y-88509390D01*
X223099939Y-88657241D01*
X223099938Y-88657242D01*
X223099937Y-88657242D01*
X222854072Y-88759082D01*
X222593063Y-88811000D01*
X222326937Y-88811000D01*
X222065928Y-88759082D01*
X221820063Y-88657242D01*
X221820062Y-88657242D01*
X221820061Y-88657241D01*
X221598788Y-88509390D01*
X221410610Y-88321212D01*
X221262759Y-88099939D01*
X221160918Y-87854072D01*
X221109000Y-87593062D01*
X221109000Y-87326938D01*
X221160918Y-87065928D01*
X221262759Y-86820061D01*
X221410610Y-86598788D01*
X221598788Y-86410610D01*
X221820061Y-86262759D01*
X222065928Y-86160918D01*
X222326937Y-86109000D01*
X222593063Y-86109000D01*
X222854072Y-86160918D01*
G37*
G36*
X227934072Y-86160918D02*
G01*
X228179939Y-86262759D01*
X228401212Y-86410610D01*
X228589390Y-86598788D01*
X228737241Y-86820061D01*
X228839082Y-87065928D01*
X228891000Y-87326938D01*
X228891000Y-87593062D01*
X228839082Y-87854072D01*
X228737241Y-88099939D01*
X228589390Y-88321212D01*
X228401212Y-88509390D01*
X228179939Y-88657241D01*
X228179938Y-88657242D01*
X228179937Y-88657242D01*
X227934072Y-88759082D01*
X227673063Y-88811000D01*
X227406937Y-88811000D01*
X227145928Y-88759082D01*
X226900063Y-88657242D01*
X226900062Y-88657242D01*
X226900061Y-88657241D01*
X226678788Y-88509390D01*
X226490610Y-88321212D01*
X226342759Y-88099939D01*
X226240918Y-87854072D01*
X226189000Y-87593062D01*
X226189000Y-87326938D01*
X226240918Y-87065928D01*
X226342759Y-86820061D01*
X226490610Y-86598788D01*
X226678788Y-86410610D01*
X226900061Y-86262759D01*
X227145928Y-86160918D01*
X227406937Y-86109000D01*
X227673063Y-86109000D01*
X227934072Y-86160918D01*
G37*
G36*
X222779074Y-81226000D02*
G01*
X222854072Y-81240918D01*
X223099939Y-81342759D01*
X223321212Y-81490610D01*
X223509390Y-81678788D01*
X223657241Y-81900061D01*
X223759082Y-82145928D01*
X223811000Y-82406938D01*
X223811000Y-82673062D01*
X223759082Y-82934072D01*
X223657241Y-83179939D01*
X223509390Y-83401212D01*
X223321212Y-83589390D01*
X223099939Y-83737241D01*
X223099938Y-83737242D01*
X223099937Y-83737242D01*
X222854072Y-83839082D01*
X222593063Y-83891000D01*
X222326937Y-83891000D01*
X222065928Y-83839082D01*
X221820063Y-83737242D01*
X221820062Y-83737242D01*
X221820061Y-83737241D01*
X221598788Y-83589390D01*
X221410610Y-83401212D01*
X221262759Y-83179939D01*
X221160918Y-82934072D01*
X221109000Y-82673062D01*
X221109000Y-82406938D01*
X221160918Y-82145928D01*
X221262759Y-81900061D01*
X221410610Y-81678788D01*
X221598788Y-81490610D01*
X221820061Y-81342759D01*
X222065928Y-81240918D01*
X222140926Y-81226000D01*
X222326937Y-81189000D01*
X222593063Y-81189000D01*
X222779074Y-81226000D01*
G37*
G36*
X227859074Y-81226000D02*
G01*
X227934072Y-81240918D01*
X228179939Y-81342759D01*
X228401212Y-81490610D01*
X228589390Y-81678788D01*
X228737241Y-81900061D01*
X228839082Y-82145928D01*
X228891000Y-82406938D01*
X228891000Y-82673062D01*
X228839082Y-82934072D01*
X228737241Y-83179939D01*
X228589390Y-83401212D01*
X228401212Y-83589390D01*
X228179939Y-83737241D01*
X228179938Y-83737242D01*
X228179937Y-83737242D01*
X227934072Y-83839082D01*
X227673063Y-83891000D01*
X227406937Y-83891000D01*
X227145928Y-83839082D01*
X226900063Y-83737242D01*
X226900062Y-83737242D01*
X226900061Y-83737241D01*
X226678788Y-83589390D01*
X226490610Y-83401212D01*
X226342759Y-83179939D01*
X226240918Y-82934072D01*
X226189000Y-82673062D01*
X226189000Y-82406938D01*
X226240918Y-82145928D01*
X226342759Y-81900061D01*
X226490610Y-81678788D01*
X226678788Y-81490610D01*
X226900061Y-81342759D01*
X227145928Y-81240918D01*
X227220926Y-81226000D01*
X227406937Y-81189000D01*
X227673063Y-81189000D01*
X227859074Y-81226000D01*
G37*
G36*
X225479487Y-78673996D02*
G01*
X225684902Y-78759082D01*
X225716255Y-78772069D01*
X225774519Y-78811000D01*
X225929339Y-78914447D01*
X226110553Y-79095661D01*
X226252932Y-79308747D01*
X226351004Y-79545513D01*
X226401000Y-79796861D01*
X226401000Y-80053139D01*
X226351004Y-80304487D01*
X226252932Y-80541253D01*
X226252931Y-80541255D01*
X226110553Y-80754339D01*
X225929339Y-80935553D01*
X225716255Y-81077931D01*
X225716254Y-81077932D01*
X225716253Y-81077932D01*
X225479487Y-81176004D01*
X225228139Y-81226000D01*
X224971861Y-81226000D01*
X224720513Y-81176004D01*
X224483747Y-81077932D01*
X224483746Y-81077932D01*
X224483745Y-81077931D01*
X224270661Y-80935553D01*
X224089447Y-80754339D01*
X223947069Y-80541255D01*
X223947068Y-80541253D01*
X223848996Y-80304487D01*
X223799000Y-80053139D01*
X223799000Y-79796861D01*
X223848996Y-79545513D01*
X223947068Y-79308747D01*
X224089447Y-79095661D01*
X224270661Y-78914447D01*
X224425481Y-78811000D01*
X224483745Y-78772069D01*
X224515098Y-78759082D01*
X224720513Y-78673996D01*
X224971861Y-78624000D01*
X225228139Y-78624000D01*
X225479487Y-78673996D01*
G37*
G36*
X227934072Y-76160918D02*
G01*
X228179939Y-76262759D01*
X228401212Y-76410610D01*
X228589390Y-76598788D01*
X228737241Y-76820061D01*
X228839082Y-77065928D01*
X228891000Y-77326938D01*
X228891000Y-77593062D01*
X228839082Y-77854072D01*
X228737241Y-78099939D01*
X228589390Y-78321212D01*
X228401212Y-78509390D01*
X228179939Y-78657241D01*
X228179938Y-78657242D01*
X228179937Y-78657242D01*
X227934072Y-78759082D01*
X227673063Y-78811000D01*
X227406937Y-78811000D01*
X227145928Y-78759082D01*
X226900063Y-78657242D01*
X226900062Y-78657242D01*
X226900061Y-78657241D01*
X226678788Y-78509390D01*
X226490610Y-78321212D01*
X226342759Y-78099939D01*
X226240918Y-77854072D01*
X226189000Y-77593062D01*
X226189000Y-77326938D01*
X226240918Y-77065928D01*
X226342759Y-76820061D01*
X226490610Y-76598788D01*
X226678788Y-76410610D01*
X226900061Y-76262759D01*
X227145928Y-76160918D01*
X227406937Y-76109000D01*
X227673063Y-76109000D01*
X227934072Y-76160918D01*
G37*
G36*
X222854072Y-76160918D02*
G01*
X223099939Y-76262759D01*
X223321212Y-76410610D01*
X223509390Y-76598788D01*
X223657241Y-76820061D01*
X223759082Y-77065928D01*
X223811000Y-77326938D01*
X223811000Y-77593062D01*
X223759082Y-77854072D01*
X223657241Y-78099939D01*
X223509390Y-78321212D01*
X223321212Y-78509390D01*
X223099939Y-78657241D01*
X223099938Y-78657242D01*
X223099937Y-78657242D01*
X222854072Y-78759082D01*
X222593063Y-78811000D01*
X222326937Y-78811000D01*
X222065928Y-78759082D01*
X221820063Y-78657242D01*
X221820062Y-78657242D01*
X221820061Y-78657241D01*
X221598788Y-78509390D01*
X221410610Y-78321212D01*
X221262759Y-78099939D01*
X221160918Y-77854072D01*
X221109000Y-77593062D01*
X221109000Y-77326938D01*
X221160918Y-77065928D01*
X221262759Y-76820061D01*
X221410610Y-76598788D01*
X221598788Y-76410610D01*
X221820061Y-76262759D01*
X222065928Y-76160918D01*
X222326937Y-76109000D01*
X222593063Y-76109000D01*
X222854072Y-76160918D01*
G37*
G36*
X222779074Y-71226000D02*
G01*
X222854072Y-71240918D01*
X223099939Y-71342759D01*
X223321212Y-71490610D01*
X223509390Y-71678788D01*
X223657241Y-71900061D01*
X223759082Y-72145928D01*
X223811000Y-72406938D01*
X223811000Y-72673062D01*
X223759082Y-72934072D01*
X223657241Y-73179939D01*
X223509390Y-73401212D01*
X223321212Y-73589390D01*
X223099939Y-73737241D01*
X223099938Y-73737242D01*
X223099937Y-73737242D01*
X222854072Y-73839082D01*
X222593063Y-73891000D01*
X222326937Y-73891000D01*
X222065928Y-73839082D01*
X221820063Y-73737242D01*
X221820062Y-73737242D01*
X221820061Y-73737241D01*
X221598788Y-73589390D01*
X221410610Y-73401212D01*
X221262759Y-73179939D01*
X221160918Y-72934072D01*
X221109000Y-72673062D01*
X221109000Y-72406938D01*
X221160918Y-72145928D01*
X221262759Y-71900061D01*
X221410610Y-71678788D01*
X221598788Y-71490610D01*
X221820061Y-71342759D01*
X222065928Y-71240918D01*
X222140926Y-71226000D01*
X222326937Y-71189000D01*
X222593063Y-71189000D01*
X222779074Y-71226000D01*
G37*
G36*
X227859074Y-71226000D02*
G01*
X227934072Y-71240918D01*
X228179939Y-71342759D01*
X228401212Y-71490610D01*
X228589390Y-71678788D01*
X228737241Y-71900061D01*
X228839082Y-72145928D01*
X228891000Y-72406938D01*
X228891000Y-72673062D01*
X228839082Y-72934072D01*
X228737241Y-73179939D01*
X228589390Y-73401212D01*
X228401212Y-73589390D01*
X228179939Y-73737241D01*
X228179938Y-73737242D01*
X228179937Y-73737242D01*
X227934072Y-73839082D01*
X227673063Y-73891000D01*
X227406937Y-73891000D01*
X227145928Y-73839082D01*
X226900063Y-73737242D01*
X226900062Y-73737242D01*
X226900061Y-73737241D01*
X226678788Y-73589390D01*
X226490610Y-73401212D01*
X226342759Y-73179939D01*
X226240918Y-72934072D01*
X226189000Y-72673062D01*
X226189000Y-72406938D01*
X226240918Y-72145928D01*
X226342759Y-71900061D01*
X226490610Y-71678788D01*
X226678788Y-71490610D01*
X226900061Y-71342759D01*
X227145928Y-71240918D01*
X227220926Y-71226000D01*
X227406937Y-71189000D01*
X227673063Y-71189000D01*
X227859074Y-71226000D01*
G37*
G36*
X225479487Y-68673996D02*
G01*
X225684902Y-68759082D01*
X225716255Y-68772069D01*
X225774519Y-68811000D01*
X225929339Y-68914447D01*
X226110553Y-69095661D01*
X226252932Y-69308747D01*
X226351004Y-69545513D01*
X226401000Y-69796861D01*
X226401000Y-70053139D01*
X226351004Y-70304487D01*
X226252932Y-70541253D01*
X226252931Y-70541255D01*
X226110553Y-70754339D01*
X225929339Y-70935553D01*
X225716255Y-71077931D01*
X225716254Y-71077932D01*
X225716253Y-71077932D01*
X225479487Y-71176004D01*
X225228139Y-71226000D01*
X224971861Y-71226000D01*
X224720513Y-71176004D01*
X224483747Y-71077932D01*
X224483746Y-71077932D01*
X224483745Y-71077931D01*
X224270661Y-70935553D01*
X224089447Y-70754339D01*
X223947069Y-70541255D01*
X223947068Y-70541253D01*
X223848996Y-70304487D01*
X223799000Y-70053139D01*
X223799000Y-69796861D01*
X223848996Y-69545513D01*
X223947068Y-69308747D01*
X224089447Y-69095661D01*
X224270661Y-68914447D01*
X224425481Y-68811000D01*
X224483745Y-68772069D01*
X224515098Y-68759082D01*
X224720513Y-68673996D01*
X224971861Y-68624000D01*
X225228139Y-68624000D01*
X225479487Y-68673996D01*
G37*
G36*
X222854072Y-66160918D02*
G01*
X223099939Y-66262759D01*
X223321212Y-66410610D01*
X223509390Y-66598788D01*
X223657241Y-66820061D01*
X223759082Y-67065928D01*
X223811000Y-67326938D01*
X223811000Y-67593062D01*
X223759082Y-67854072D01*
X223657241Y-68099939D01*
X223509390Y-68321212D01*
X223321212Y-68509390D01*
X223099939Y-68657241D01*
X223099938Y-68657242D01*
X223099937Y-68657242D01*
X222854072Y-68759082D01*
X222593063Y-68811000D01*
X222326937Y-68811000D01*
X222065928Y-68759082D01*
X221820063Y-68657242D01*
X221820062Y-68657242D01*
X221820061Y-68657241D01*
X221598788Y-68509390D01*
X221410610Y-68321212D01*
X221262759Y-68099939D01*
X221160918Y-67854072D01*
X221109000Y-67593062D01*
X221109000Y-67326938D01*
X221160918Y-67065928D01*
X221262759Y-66820061D01*
X221410610Y-66598788D01*
X221598788Y-66410610D01*
X221820061Y-66262759D01*
X222065928Y-66160918D01*
X222326937Y-66109000D01*
X222593063Y-66109000D01*
X222854072Y-66160918D01*
G37*
G36*
X227934072Y-66160918D02*
G01*
X228179939Y-66262759D01*
X228401212Y-66410610D01*
X228589390Y-66598788D01*
X228737241Y-66820061D01*
X228839082Y-67065928D01*
X228891000Y-67326938D01*
X228891000Y-67593062D01*
X228839082Y-67854072D01*
X228737241Y-68099939D01*
X228589390Y-68321212D01*
X228401212Y-68509390D01*
X228179939Y-68657241D01*
X228179938Y-68657242D01*
X228179937Y-68657242D01*
X227934072Y-68759082D01*
X227673063Y-68811000D01*
X227406937Y-68811000D01*
X227145928Y-68759082D01*
X226900063Y-68657242D01*
X226900062Y-68657242D01*
X226900061Y-68657241D01*
X226678788Y-68509390D01*
X226490610Y-68321212D01*
X226342759Y-68099939D01*
X226240918Y-67854072D01*
X226189000Y-67593062D01*
X226189000Y-67326938D01*
X226240918Y-67065928D01*
X226342759Y-66820061D01*
X226490610Y-66598788D01*
X226678788Y-66410610D01*
X226900061Y-66262759D01*
X227145928Y-66160918D01*
X227406937Y-66109000D01*
X227673063Y-66109000D01*
X227934072Y-66160918D01*
G37*
G36*
X143838855Y-63852140D02*
G01*
X143902618Y-63858420D01*
X143993404Y-63885960D01*
X144025336Y-63895646D01*
X144138425Y-63956094D01*
X144237554Y-64037446D01*
X144318906Y-64136575D01*
X144379354Y-64249664D01*
X144379355Y-64249668D01*
X144416580Y-64372382D01*
X144429149Y-64500000D01*
X144416580Y-64627618D01*
X144389040Y-64718404D01*
X144379354Y-64750336D01*
X144318906Y-64863425D01*
X144237554Y-64962554D01*
X144138425Y-65043906D01*
X144025336Y-65104354D01*
X143993404Y-65114040D01*
X143902618Y-65141580D01*
X143838855Y-65147860D01*
X143806974Y-65151000D01*
X143193026Y-65151000D01*
X143161145Y-65147860D01*
X143097382Y-65141580D01*
X143006596Y-65114040D01*
X142974664Y-65104354D01*
X142861575Y-65043906D01*
X142762446Y-64962554D01*
X142681094Y-64863425D01*
X142620646Y-64750336D01*
X142610960Y-64718404D01*
X142583420Y-64627618D01*
X142570851Y-64500000D01*
X142583420Y-64372382D01*
X142620645Y-64249668D01*
X142620646Y-64249664D01*
X142681094Y-64136575D01*
X142762446Y-64037446D01*
X142861575Y-63956094D01*
X142974664Y-63895646D01*
X143006596Y-63885960D01*
X143097382Y-63858420D01*
X143161145Y-63852140D01*
X143193026Y-63849000D01*
X143806974Y-63849000D01*
X143838855Y-63852140D01*
G37*
G36*
X227859074Y-61226000D02*
G01*
X227934072Y-61240918D01*
X228179939Y-61342759D01*
X228291328Y-61417187D01*
X228401211Y-61490609D01*
X228589391Y-61678789D01*
X228737242Y-61900063D01*
X228839082Y-62145928D01*
X228891000Y-62406937D01*
X228891000Y-62673063D01*
X228839082Y-62934072D01*
X228793588Y-63043906D01*
X228737241Y-63179939D01*
X228589390Y-63401212D01*
X228401212Y-63589390D01*
X228179939Y-63737241D01*
X228179938Y-63737242D01*
X228179937Y-63737242D01*
X227934072Y-63839082D01*
X227673063Y-63891000D01*
X227406937Y-63891000D01*
X227145928Y-63839082D01*
X226900063Y-63737242D01*
X226900062Y-63737242D01*
X226900061Y-63737241D01*
X226678788Y-63589390D01*
X226490610Y-63401212D01*
X226342759Y-63179939D01*
X226286413Y-63043906D01*
X226240918Y-62934072D01*
X226189000Y-62673063D01*
X226189000Y-62406937D01*
X226240918Y-62145928D01*
X226342758Y-61900063D01*
X226490609Y-61678789D01*
X226678789Y-61490609D01*
X226788672Y-61417187D01*
X226900061Y-61342759D01*
X227145928Y-61240918D01*
X227220926Y-61226000D01*
X227406937Y-61189000D01*
X227673063Y-61189000D01*
X227859074Y-61226000D01*
G37*
G36*
X222779074Y-61226000D02*
G01*
X222854072Y-61240918D01*
X223099939Y-61342759D01*
X223211328Y-61417187D01*
X223321211Y-61490609D01*
X223509391Y-61678789D01*
X223657242Y-61900063D01*
X223759082Y-62145928D01*
X223811000Y-62406937D01*
X223811000Y-62673063D01*
X223759082Y-62934072D01*
X223713588Y-63043906D01*
X223657241Y-63179939D01*
X223509390Y-63401212D01*
X223321212Y-63589390D01*
X223099939Y-63737241D01*
X223099938Y-63737242D01*
X223099937Y-63737242D01*
X222854072Y-63839082D01*
X222593063Y-63891000D01*
X222326937Y-63891000D01*
X222065928Y-63839082D01*
X221820063Y-63737242D01*
X221820062Y-63737242D01*
X221820061Y-63737241D01*
X221598788Y-63589390D01*
X221410610Y-63401212D01*
X221262759Y-63179939D01*
X221206413Y-63043906D01*
X221160918Y-62934072D01*
X221109000Y-62673063D01*
X221109000Y-62406937D01*
X221160918Y-62145928D01*
X221262758Y-61900063D01*
X221410609Y-61678789D01*
X221598789Y-61490609D01*
X221708672Y-61417187D01*
X221820061Y-61342759D01*
X222065928Y-61240918D01*
X222140926Y-61226000D01*
X222326937Y-61189000D01*
X222593063Y-61189000D01*
X222779074Y-61226000D01*
G37*
G36*
X143838855Y-61852140D02*
G01*
X143902618Y-61858420D01*
X143993404Y-61885960D01*
X144025336Y-61895646D01*
X144138425Y-61956094D01*
X144237554Y-62037446D01*
X144318906Y-62136575D01*
X144379354Y-62249664D01*
X144379355Y-62249668D01*
X144416580Y-62372382D01*
X144429149Y-62500000D01*
X144416580Y-62627618D01*
X144402794Y-62673063D01*
X144379354Y-62750336D01*
X144318906Y-62863425D01*
X144237554Y-62962554D01*
X144138425Y-63043906D01*
X144025336Y-63104354D01*
X143993404Y-63114040D01*
X143902618Y-63141580D01*
X143838855Y-63147860D01*
X143806974Y-63151000D01*
X143193026Y-63151000D01*
X143161145Y-63147860D01*
X143097382Y-63141580D01*
X143006596Y-63114040D01*
X142974664Y-63104354D01*
X142861575Y-63043906D01*
X142762446Y-62962554D01*
X142681094Y-62863425D01*
X142620646Y-62750336D01*
X142597206Y-62673063D01*
X142583420Y-62627618D01*
X142570851Y-62500000D01*
X142583420Y-62372382D01*
X142620645Y-62249668D01*
X142620646Y-62249664D01*
X142681094Y-62136575D01*
X142762446Y-62037446D01*
X142861575Y-61956094D01*
X142974664Y-61895646D01*
X143006596Y-61885960D01*
X143097382Y-61858420D01*
X143161145Y-61852140D01*
X143193026Y-61849000D01*
X143806974Y-61849000D01*
X143838855Y-61852140D01*
G37*
G36*
X225479487Y-58673996D02*
G01*
X225684902Y-58759082D01*
X225716255Y-58772069D01*
X225774519Y-58811000D01*
X225929339Y-58914447D01*
X226110553Y-59095661D01*
X226252932Y-59308747D01*
X226351004Y-59545513D01*
X226401000Y-59796861D01*
X226401000Y-60053139D01*
X226351004Y-60304487D01*
X226252932Y-60541253D01*
X226252931Y-60541255D01*
X226110553Y-60754339D01*
X225929339Y-60935553D01*
X225716255Y-61077931D01*
X225716254Y-61077932D01*
X225716253Y-61077932D01*
X225479487Y-61176004D01*
X225228139Y-61226000D01*
X224971861Y-61226000D01*
X224720513Y-61176004D01*
X224483747Y-61077932D01*
X224483746Y-61077932D01*
X224483745Y-61077931D01*
X224270661Y-60935553D01*
X224089447Y-60754339D01*
X223947069Y-60541255D01*
X223947068Y-60541253D01*
X223848996Y-60304487D01*
X223799000Y-60053139D01*
X223799000Y-59796861D01*
X223848996Y-59545513D01*
X223947068Y-59308747D01*
X224089447Y-59095661D01*
X224270661Y-58914447D01*
X224425481Y-58811000D01*
X224483745Y-58772069D01*
X224515098Y-58759082D01*
X224720513Y-58673996D01*
X224971861Y-58624000D01*
X225228139Y-58624000D01*
X225479487Y-58673996D01*
G37*
G36*
X143838855Y-59852140D02*
G01*
X143902618Y-59858420D01*
X143993404Y-59885960D01*
X144025336Y-59895646D01*
X144138425Y-59956094D01*
X144237554Y-60037446D01*
X144318906Y-60136575D01*
X144379354Y-60249664D01*
X144379355Y-60249668D01*
X144416580Y-60372382D01*
X144429149Y-60500000D01*
X144416580Y-60627618D01*
X144389040Y-60718404D01*
X144379354Y-60750336D01*
X144318906Y-60863425D01*
X144237554Y-60962554D01*
X144138425Y-61043906D01*
X144025336Y-61104354D01*
X143993404Y-61114040D01*
X143902618Y-61141580D01*
X143838855Y-61147860D01*
X143806974Y-61151000D01*
X143193026Y-61151000D01*
X143161145Y-61147860D01*
X143097382Y-61141580D01*
X143006596Y-61114040D01*
X142974664Y-61104354D01*
X142861575Y-61043906D01*
X142762446Y-60962554D01*
X142681094Y-60863425D01*
X142620646Y-60750336D01*
X142610960Y-60718404D01*
X142583420Y-60627618D01*
X142570851Y-60500000D01*
X142583420Y-60372382D01*
X142620645Y-60249668D01*
X142620646Y-60249664D01*
X142681094Y-60136575D01*
X142762446Y-60037446D01*
X142861575Y-59956094D01*
X142974664Y-59895646D01*
X143006596Y-59885960D01*
X143097382Y-59858420D01*
X143161145Y-59852140D01*
X143193026Y-59849000D01*
X143806974Y-59849000D01*
X143838855Y-59852140D01*
G37*
G36*
X144266242Y-57853404D02*
G01*
X144303337Y-57864657D01*
X144337515Y-57882925D01*
X144367481Y-57907519D01*
X144392075Y-57937485D01*
X144410343Y-57971663D01*
X144421596Y-58008758D01*
X144426000Y-58053474D01*
X144426000Y-58946526D01*
X144421596Y-58991242D01*
X144410343Y-59028337D01*
X144392075Y-59062515D01*
X144367481Y-59092481D01*
X144337515Y-59117075D01*
X144303337Y-59135343D01*
X144266242Y-59146596D01*
X144221526Y-59151000D01*
X142778474Y-59151000D01*
X142733758Y-59146596D01*
X142696663Y-59135343D01*
X142662485Y-59117075D01*
X142632519Y-59092481D01*
X142607925Y-59062515D01*
X142589657Y-59028337D01*
X142578404Y-58991242D01*
X142574000Y-58946526D01*
X142574000Y-58053474D01*
X142578404Y-58008758D01*
X142589657Y-57971663D01*
X142607925Y-57937485D01*
X142632519Y-57907519D01*
X142662485Y-57882925D01*
X142696663Y-57864657D01*
X142733758Y-57853404D01*
X142778474Y-57849000D01*
X144221526Y-57849000D01*
X144266242Y-57853404D01*
G37*
G36*
X222854072Y-56160918D02*
G01*
X223099939Y-56262759D01*
X223211328Y-56337187D01*
X223321211Y-56410609D01*
X223509391Y-56598789D01*
X223657242Y-56820063D01*
X223759082Y-57065928D01*
X223811000Y-57326937D01*
X223811000Y-57593063D01*
X223759082Y-57854072D01*
X223710375Y-57971663D01*
X223657241Y-58099939D01*
X223509390Y-58321212D01*
X223321212Y-58509390D01*
X223099939Y-58657241D01*
X223099938Y-58657242D01*
X223099937Y-58657242D01*
X222854072Y-58759082D01*
X222593063Y-58811000D01*
X222326937Y-58811000D01*
X222065928Y-58759082D01*
X221820063Y-58657242D01*
X221820062Y-58657242D01*
X221820061Y-58657241D01*
X221598788Y-58509390D01*
X221410610Y-58321212D01*
X221262759Y-58099939D01*
X221209626Y-57971663D01*
X221160918Y-57854072D01*
X221109000Y-57593063D01*
X221109000Y-57326937D01*
X221160918Y-57065928D01*
X221262758Y-56820063D01*
X221410609Y-56598789D01*
X221598789Y-56410609D01*
X221708672Y-56337187D01*
X221820061Y-56262759D01*
X222065928Y-56160918D01*
X222326937Y-56109000D01*
X222593063Y-56109000D01*
X222854072Y-56160918D01*
G37*
G36*
X227934072Y-56160918D02*
G01*
X228179939Y-56262759D01*
X228291328Y-56337187D01*
X228401211Y-56410609D01*
X228589391Y-56598789D01*
X228737242Y-56820063D01*
X228839082Y-57065928D01*
X228891000Y-57326937D01*
X228891000Y-57593063D01*
X228839082Y-57854072D01*
X228790375Y-57971663D01*
X228737241Y-58099939D01*
X228589390Y-58321212D01*
X228401212Y-58509390D01*
X228179939Y-58657241D01*
X228179938Y-58657242D01*
X228179937Y-58657242D01*
X227934072Y-58759082D01*
X227673063Y-58811000D01*
X227406937Y-58811000D01*
X227145928Y-58759082D01*
X226900063Y-58657242D01*
X226900062Y-58657242D01*
X226900061Y-58657241D01*
X226678788Y-58509390D01*
X226490610Y-58321212D01*
X226342759Y-58099939D01*
X226289626Y-57971663D01*
X226240918Y-57854072D01*
X226189000Y-57593063D01*
X226189000Y-57326937D01*
X226240918Y-57065928D01*
X226342758Y-56820063D01*
X226490609Y-56598789D01*
X226678789Y-56410609D01*
X226788672Y-56337187D01*
X226900061Y-56262759D01*
X227145928Y-56160918D01*
X227406937Y-56109000D01*
X227673063Y-56109000D01*
X227934072Y-56160918D01*
G37*
G36*
X222734205Y-51217075D02*
G01*
X222854072Y-51240918D01*
X223099939Y-51342759D01*
X223321212Y-51490610D01*
X223509390Y-51678788D01*
X223657241Y-51900061D01*
X223759082Y-52145928D01*
X223811000Y-52406938D01*
X223811000Y-52673062D01*
X223759082Y-52934072D01*
X223657241Y-53179939D01*
X223509390Y-53401212D01*
X223321212Y-53589390D01*
X223099939Y-53737241D01*
X223099938Y-53737242D01*
X223099937Y-53737242D01*
X222854072Y-53839082D01*
X222593063Y-53891000D01*
X222326937Y-53891000D01*
X222065928Y-53839082D01*
X221820063Y-53737242D01*
X221820062Y-53737242D01*
X221820061Y-53737241D01*
X221598788Y-53589390D01*
X221410610Y-53401212D01*
X221262759Y-53179939D01*
X221160918Y-52934072D01*
X221109000Y-52673062D01*
X221109000Y-52406938D01*
X221160918Y-52145928D01*
X221262759Y-51900061D01*
X221410610Y-51678788D01*
X221598788Y-51490610D01*
X221820061Y-51342759D01*
X222065928Y-51240918D01*
X222185795Y-51217075D01*
X222326937Y-51189000D01*
X222593063Y-51189000D01*
X222734205Y-51217075D01*
G37*
G36*
X227814205Y-51217075D02*
G01*
X227934072Y-51240918D01*
X228179939Y-51342759D01*
X228401212Y-51490610D01*
X228589390Y-51678788D01*
X228737241Y-51900061D01*
X228839082Y-52145928D01*
X228891000Y-52406938D01*
X228891000Y-52673062D01*
X228839082Y-52934072D01*
X228737241Y-53179939D01*
X228589390Y-53401212D01*
X228401212Y-53589390D01*
X228179939Y-53737241D01*
X228179938Y-53737242D01*
X228179937Y-53737242D01*
X227934072Y-53839082D01*
X227673063Y-53891000D01*
X227406937Y-53891000D01*
X227145928Y-53839082D01*
X226900063Y-53737242D01*
X226900062Y-53737242D01*
X226900061Y-53737241D01*
X226678788Y-53589390D01*
X226490610Y-53401212D01*
X226342759Y-53179939D01*
X226240918Y-52934072D01*
X226189000Y-52673062D01*
X226189000Y-52406938D01*
X226240918Y-52145928D01*
X226342759Y-51900061D01*
X226490610Y-51678788D01*
X226678788Y-51490610D01*
X226900061Y-51342759D01*
X227145928Y-51240918D01*
X227265795Y-51217075D01*
X227406937Y-51189000D01*
X227673063Y-51189000D01*
X227814205Y-51217075D01*
G37*
G36*
X145566242Y-49953404D02*
G01*
X145603337Y-49964657D01*
X145637515Y-49982925D01*
X145667481Y-50007519D01*
X145692075Y-50037485D01*
X145710343Y-50071663D01*
X145721596Y-50108758D01*
X145726000Y-50153474D01*
X145726000Y-51046526D01*
X145721596Y-51091242D01*
X145710343Y-51128337D01*
X145692075Y-51162515D01*
X145667481Y-51192481D01*
X145637515Y-51217075D01*
X145603337Y-51235343D01*
X145566242Y-51246596D01*
X145521526Y-51251000D01*
X144078474Y-51251000D01*
X144033758Y-51246596D01*
X143996663Y-51235343D01*
X143962485Y-51217075D01*
X143932519Y-51192481D01*
X143907925Y-51162515D01*
X143889657Y-51128337D01*
X143878404Y-51091242D01*
X143874000Y-51046526D01*
X143874000Y-50153474D01*
X143878404Y-50108758D01*
X143889657Y-50071663D01*
X143907925Y-50037485D01*
X143932519Y-50007519D01*
X143962485Y-49982925D01*
X143996663Y-49964657D01*
X144033758Y-49953404D01*
X144078474Y-49949000D01*
X145521526Y-49949000D01*
X145566242Y-49953404D01*
G37*
G36*
X225304487Y-48648996D02*
G01*
X225541253Y-48747068D01*
X225541255Y-48747069D01*
X225754339Y-48889447D01*
X225935553Y-49070661D01*
X226056052Y-49251000D01*
X226077932Y-49283747D01*
X226176004Y-49520513D01*
X226226000Y-49771861D01*
X226226000Y-50028139D01*
X226176004Y-50279487D01*
X226077932Y-50516253D01*
X226077931Y-50516255D01*
X225935553Y-50729339D01*
X225754339Y-50910553D01*
X225541255Y-51052931D01*
X225541254Y-51052932D01*
X225541253Y-51052932D01*
X225304487Y-51151004D01*
X225053139Y-51201000D01*
X224796861Y-51201000D01*
X224545513Y-51151004D01*
X224308747Y-51052932D01*
X224308746Y-51052932D01*
X224308745Y-51052931D01*
X224095661Y-50910553D01*
X223914447Y-50729339D01*
X223772069Y-50516255D01*
X223772068Y-50516253D01*
X223673996Y-50279487D01*
X223624000Y-50028139D01*
X223624000Y-49771861D01*
X223673996Y-49520513D01*
X223772068Y-49283747D01*
X223793949Y-49251000D01*
X223914447Y-49070661D01*
X224095661Y-48889447D01*
X224308745Y-48747069D01*
X224308747Y-48747068D01*
X224545513Y-48648996D01*
X224796861Y-48599000D01*
X225053139Y-48599000D01*
X225304487Y-48648996D01*
G37*
G36*
X145138855Y-47952140D02*
G01*
X145202618Y-47958420D01*
X145293404Y-47985960D01*
X145325336Y-47995646D01*
X145438425Y-48056094D01*
X145537554Y-48137446D01*
X145618906Y-48236575D01*
X145679354Y-48349664D01*
X145679355Y-48349668D01*
X145716580Y-48472382D01*
X145729149Y-48600000D01*
X145716580Y-48727618D01*
X145707035Y-48759082D01*
X145679354Y-48850336D01*
X145618906Y-48963425D01*
X145537554Y-49062554D01*
X145438425Y-49143906D01*
X145325336Y-49204354D01*
X145293404Y-49214040D01*
X145202618Y-49241580D01*
X145138855Y-49247860D01*
X145106974Y-49251000D01*
X144493026Y-49251000D01*
X144461145Y-49247860D01*
X144397382Y-49241580D01*
X144306596Y-49214040D01*
X144274664Y-49204354D01*
X144161575Y-49143906D01*
X144062446Y-49062554D01*
X143981094Y-48963425D01*
X143920646Y-48850336D01*
X143892965Y-48759082D01*
X143883420Y-48727618D01*
X143870851Y-48600000D01*
X143883420Y-48472382D01*
X143920645Y-48349668D01*
X143920646Y-48349664D01*
X143981094Y-48236575D01*
X144062446Y-48137446D01*
X144161575Y-48056094D01*
X144274664Y-47995646D01*
X144306596Y-47985960D01*
X144397382Y-47958420D01*
X144461145Y-47952140D01*
X144493026Y-47949000D01*
X145106974Y-47949000D01*
X145138855Y-47952140D01*
G37*
G36*
X222854072Y-46160918D02*
G01*
X223099939Y-46262759D01*
X223321212Y-46410610D01*
X223509390Y-46598788D01*
X223657241Y-46820061D01*
X223759082Y-47065928D01*
X223811000Y-47326938D01*
X223811000Y-47593062D01*
X223759082Y-47854072D01*
X223657241Y-48099939D01*
X223509390Y-48321212D01*
X223321212Y-48509390D01*
X223099939Y-48657241D01*
X223099938Y-48657242D01*
X223099937Y-48657242D01*
X222854072Y-48759082D01*
X222593063Y-48811000D01*
X222326937Y-48811000D01*
X222065928Y-48759082D01*
X221820063Y-48657242D01*
X221820062Y-48657242D01*
X221820061Y-48657241D01*
X221598788Y-48509390D01*
X221410610Y-48321212D01*
X221262759Y-48099939D01*
X221160918Y-47854072D01*
X221109000Y-47593062D01*
X221109000Y-47326938D01*
X221160918Y-47065928D01*
X221262759Y-46820061D01*
X221410610Y-46598788D01*
X221598788Y-46410610D01*
X221820061Y-46262759D01*
X222065928Y-46160918D01*
X222326937Y-46109000D01*
X222593063Y-46109000D01*
X222854072Y-46160918D01*
G37*
G36*
X227934072Y-46160918D02*
G01*
X228179939Y-46262759D01*
X228401212Y-46410610D01*
X228589390Y-46598788D01*
X228737241Y-46820061D01*
X228839082Y-47065928D01*
X228891000Y-47326938D01*
X228891000Y-47593062D01*
X228839082Y-47854072D01*
X228737241Y-48099939D01*
X228589390Y-48321212D01*
X228401212Y-48509390D01*
X228179939Y-48657241D01*
X228179938Y-48657242D01*
X228179937Y-48657242D01*
X227934072Y-48759082D01*
X227673063Y-48811000D01*
X227406937Y-48811000D01*
X227145928Y-48759082D01*
X226900063Y-48657242D01*
X226900062Y-48657242D01*
X226900061Y-48657241D01*
X226678788Y-48509390D01*
X226490610Y-48321212D01*
X226342759Y-48099939D01*
X226240918Y-47854072D01*
X226189000Y-47593062D01*
X226189000Y-47326938D01*
X226240918Y-47065928D01*
X226342759Y-46820061D01*
X226490610Y-46598788D01*
X226678788Y-46410610D01*
X226900061Y-46262759D01*
X227145928Y-46160918D01*
X227406937Y-46109000D01*
X227673063Y-46109000D01*
X227934072Y-46160918D01*
G37*
G36*
X225634239Y-36811467D02*
G01*
X225948282Y-36873934D01*
X226539926Y-37119001D01*
X227072392Y-37474784D01*
X227525216Y-37927608D01*
X227880999Y-38460074D01*
X228126066Y-39051718D01*
X228251000Y-39679804D01*
X228251000Y-40320196D01*
X228126066Y-40948282D01*
X227880999Y-41539926D01*
X227525216Y-42072392D01*
X227072392Y-42525216D01*
X226539926Y-42880999D01*
X225948282Y-43126066D01*
X225634239Y-43188533D01*
X225320197Y-43251000D01*
X224679803Y-43251000D01*
X224365761Y-43188533D01*
X224051718Y-43126066D01*
X223460074Y-42880999D01*
X222927608Y-42525216D01*
X222474784Y-42072392D01*
X222119001Y-41539926D01*
X221873934Y-40948282D01*
X221749000Y-40320196D01*
X221749000Y-39679804D01*
X221873934Y-39051718D01*
X222119001Y-38460074D01*
X222474784Y-37927608D01*
X222927608Y-37474784D01*
X223460074Y-37119001D01*
X224051718Y-36873934D01*
X224365761Y-36811467D01*
X224679803Y-36749000D01*
X225320197Y-36749000D01*
X225634239Y-36811467D01*
G37*
G36*
X145634239Y-36811467D02*
G01*
X145948282Y-36873934D01*
X146539926Y-37119001D01*
X147072392Y-37474784D01*
X147525216Y-37927608D01*
X147880999Y-38460074D01*
X148126066Y-39051718D01*
X148251000Y-39679804D01*
X148251000Y-40320196D01*
X148126066Y-40948282D01*
X147880999Y-41539926D01*
X147525216Y-42072392D01*
X147072392Y-42525216D01*
X146539926Y-42880999D01*
X145948282Y-43126066D01*
X145634239Y-43188533D01*
X145320197Y-43251000D01*
X144679803Y-43251000D01*
X144365761Y-43188533D01*
X144051718Y-43126066D01*
X143460074Y-42880999D01*
X142927608Y-42525216D01*
X142474784Y-42072392D01*
X142119001Y-41539926D01*
X141873934Y-40948282D01*
X141749000Y-40320196D01*
X141749000Y-39679804D01*
X141873934Y-39051718D01*
X142119001Y-38460074D01*
X142474784Y-37927608D01*
X142927608Y-37474784D01*
X143460074Y-37119001D01*
X144051718Y-36873934D01*
X144365761Y-36811467D01*
X144679803Y-36749000D01*
X145320197Y-36749000D01*
X145634239Y-36811467D01*
G37*
M02*
