M48
; DRILL file {KiCad (5.1.5-0)} date Thursday, March 26, 2020 at 07:19:44 AM
; FORMAT={-:-/ absolute / inch / decimal}
; #@! TF.CreationDate,2020-03-26T07:19:44-06:00
; #@! TF.GenerationSoftware,Kicad,Pcbnew,(5.1.5-0)
FMAT,2
INCH
T1C0.0157
T2C0.0197
T3C0.0295
T4C0.0591
T5C0.0630
T6C0.1260
%
G90
G05
T1
X5.6614Y-3.7953
X5.687Y-4.3465
X5.7205Y-3.2874
X5.8189Y-3.4291
X5.8228Y-3.2874
X5.8563Y-3.9862
X5.8661Y-2.7244
X5.8898Y-3.2953
X5.9114Y-3.7461
X5.9232Y-4.1457
X5.939Y-3.0039
X5.9843Y-3.2756
X5.9843Y-3.3386
X5.9843Y-3.4055
X5.9843Y-3.4646
X5.9843Y-3.5236
X5.9843Y-3.5827
X5.9843Y-3.6417
X5.9843Y-3.7008
X6.061Y-2.7657
X6.2598Y-3.2146
X6.2598Y-3.2598
X6.3228Y-4.9665
X6.4843Y-2.2028
X6.4882Y-2.5925
X6.4882Y-3.435
X6.4902Y-2.9902
X6.4902Y-3.8071
X6.4902Y-4.185
X6.4921Y-4.5866
X6.6181Y-3.7559
X6.6732Y-2.5079
X6.6732Y-2.8858
X6.6732Y-3.2943
X6.6732Y-4.0984
X6.6732Y-4.4724
X6.6772Y-2.1181
X6.6811Y-4.8701
X6.7244Y-1.9528
X6.7283Y-2.3268
X6.7323Y-4.7008
X6.7362Y-2.7165
X6.7362Y-3.1142
X6.7362Y-3.5531
X6.7362Y-3.9331
X6.7402Y-4.3071
X6.75Y-3.435
X6.7598Y-1.874
X6.7657Y-2.25
X6.7677Y-3.0354
X6.7677Y-3.8543
X6.7677Y-4.2283
X6.7677Y-4.622
X6.7697Y-2.6358
X7.1181Y-3.6063
X7.1181Y-4.0157
X7.126Y-2.0315
X7.126Y-3.1969
X7.1339Y-2.4094
X7.1339Y-2.7953
X7.1339Y-4.3858
X7.1339Y-4.7795
X7.2303Y-4.9771
X7.2953Y-1.9823
X7.2992Y-2.3583
X7.3022Y-3.5571
X7.3031Y-2.7461
X7.3031Y-3.1437
X7.3031Y-3.9626
X7.3031Y-4.3366
X7.3031Y-4.7303
X7.3504Y-2.1339
X7.3543Y-2.5098
X7.3573Y-3.7087
X7.3583Y-2.8976
X7.3583Y-3.2953
X7.3583Y-4.1142
X7.3583Y-4.8819
X7.3622Y-4.4882
X7.4843Y-1.9514
X7.4882Y-2.3274
X7.4911Y-3.5262
X7.4921Y-2.1929
X7.4921Y-2.7152
X7.4921Y-3.1128
X7.4921Y-3.7953
X7.4921Y-3.9317
X7.4921Y-4.3057
X7.4921Y-4.6994
X7.4961Y-2.5827
X7.4961Y-2.9803
X7.4961Y-3.3898
X7.5354Y-1.9528
X7.5472Y-1.9134
X7.5512Y-2.2894
X7.5512Y-3.0748
X7.5512Y-3.8937
X7.5541Y-3.4882
X7.5551Y-2.6772
X7.5551Y-4.2677
X7.5551Y-4.6614
X7.5886Y-1.9626
X7.5925Y-2.3386
X7.5955Y-3.5374
X7.5965Y-2.7264
X7.5965Y-3.124
X7.5965Y-3.9429
X7.5965Y-4.3169
X7.5965Y-4.7106
X7.7283Y-1.9114
X7.7323Y-2.2874
X7.7352Y-3.4862
X7.7362Y-2.6752
X7.7362Y-3.0728
X7.7362Y-3.8917
X7.7362Y-4.2657
X7.7362Y-4.6594
X7.752Y-1.9508
X7.7559Y-2.3268
X7.7589Y-3.5256
X7.7598Y-2.7146
X7.7598Y-3.1122
X7.7598Y-3.9311
X7.7598Y-4.3051
X7.7598Y-4.6988
X7.8228Y-2.061
X7.8268Y-2.437
X7.8297Y-3.6358
X7.8307Y-2.8248
X7.8307Y-3.2224
X7.8307Y-4.0413
X7.8307Y-4.4154
X7.8307Y-4.8091
X7.8363Y-1.9902
X7.8403Y-2.3661
X7.8432Y-3.565
X7.8442Y-2.7539
X7.8442Y-3.1516
X7.8442Y-3.9705
X7.8442Y-4.3445
X7.8442Y-4.7382
X7.8491Y-2.1424
X7.853Y-2.5184
X7.856Y-3.7172
X7.857Y-2.9062
X7.857Y-3.3038
X7.857Y-4.4967
X7.857Y-4.8904
X7.8754Y-4.1043
X7.9173Y-2.124
X7.9213Y-2.5
X7.9242Y-3.6988
X7.9252Y-2.8878
X7.9252Y-3.2854
X7.9252Y-4.1043
X7.9252Y-4.4783
X7.9252Y-4.872
X7.9646Y-1.8799
X8.0118Y-2.0138
X8.0157Y-2.3898
X8.0187Y-3.5886
X8.0197Y-2.7776
X8.0197Y-3.1752
X8.0197Y-3.9941
X8.0197Y-4.3681
X8.0197Y-4.7618
X8.0335Y-3.8602
X8.0354Y-2.6437
X8.0354Y-4.2323
X8.0374Y-3.4528
X8.0394Y-2.2559
X8.0394Y-3.0413
X8.0472Y-4.626
X8.0748Y-2.0153
X8.0788Y-2.3913
X8.0817Y-3.5901
X8.0827Y-2.7791
X8.0827Y-3.1768
X8.0827Y-3.9957
X8.0827Y-4.3697
X8.0827Y-4.7634
X8.185Y-1.935
X8.189Y-2.311
X8.1919Y-3.5098
X8.1929Y-2.6988
X8.1929Y-3.0965
X8.1929Y-3.9154
X8.1929Y-4.2894
X8.1929Y-4.6831
X8.2756Y-2.002
X8.2756Y-2.0906
X8.2795Y-2.378
X8.2795Y-2.4665
X8.2825Y-3.5768
X8.2825Y-3.6654
X8.2835Y-2.7657
X8.2835Y-2.8543
X8.2835Y-3.1634
X8.2835Y-3.252
X8.2835Y-3.9823
X8.2835Y-4.0709
X8.2835Y-4.3563
X8.2835Y-4.4449
X8.2835Y-4.75
X8.2835Y-4.8386
X8.4449Y-1.8563
X8.4488Y-2.2323
X8.4518Y-3.4311
X8.4528Y-2.6201
X8.4528Y-3.0177
X8.4528Y-3.8366
X8.4528Y-4.2106
X8.4528Y-4.6043
T2
X8.7638Y-1.5748
X8.7915Y-1.508
X8.7915Y-1.6416
X8.8583Y-1.4803
X8.8583Y-1.6693
X8.9251Y-1.508
X8.9251Y-1.6416
X8.9528Y-1.5748
X5.6142Y-5.0787
X5.6418Y-5.0119
X5.6418Y-5.1456
X5.7087Y-4.9843
X5.7087Y-5.1732
X5.7755Y-5.0119
X5.7755Y-5.1456
X5.8031Y-5.0787
X8.7638Y-5.0984
X8.7915Y-5.0316
X8.7915Y-5.1652
X8.8583Y-5.0039
X8.8583Y-5.1929
X8.9251Y-5.0316
X8.9251Y-5.1652
X8.9528Y-5.0984
X5.6142Y-1.5748
X5.6418Y-1.508
X5.6418Y-1.6416
X5.7087Y-1.4803
X5.7087Y-1.6693
X5.7755Y-1.508
X5.7755Y-1.6416
X5.8031Y-1.5748
T3
X5.6693Y-4.685
X5.6693Y-4.7638
X5.7008Y-1.9134
X5.7008Y-1.9921
X5.6496Y-2.3031
X5.6496Y-2.3819
X5.6496Y-2.4606
X5.6496Y-2.5394
T4
X8.8553Y-1.9646
X8.8622Y-3.9341
X8.8583Y-4.3307
X8.8622Y-3.5404
X8.8622Y-4.7215
X8.8622Y-3.1467
X8.8622Y-2.753
X8.8622Y-2.3593
T5
X8.7583Y-2.6559
X8.7583Y-2.8559
X8.9583Y-2.6559
X8.9583Y-2.8559
X8.7583Y-3.4433
X8.7583Y-3.6433
X8.9583Y-3.4433
X8.9583Y-3.6433
X8.7583Y-4.6244
X8.7583Y-4.8244
X8.9583Y-4.6244
X8.9583Y-4.8244
X8.7583Y-2.2622
X8.7583Y-2.4622
X8.9583Y-2.2622
X8.9583Y-2.4622
X8.7583Y-1.8685
X8.7583Y-2.0685
X8.9583Y-1.8685
X8.9583Y-2.0685
X8.7583Y-3.0496
X8.7583Y-3.2496
X8.9583Y-3.0496
X8.9583Y-3.2496
X8.7583Y-3.837
X8.7583Y-4.037
X8.9583Y-3.837
X8.9583Y-4.037
X8.7543Y-4.2337
X8.7543Y-4.4337
X8.9543Y-4.2337
X8.9543Y-4.4337
T6
X5.7087Y-5.0787
X8.8583Y-5.0984
X5.7087Y-1.5748
X8.8583Y-1.5748
T0
M30
